<?xml version="1.0" encoding="utf-8"?>
<!-- Generator: Adobe Illustrator 19.0.0, SVG Export Plug-In . SVG Version: 6.00 Build 0)  -->
<svg version="1.1" id="Layer_1" xmlns="http://www.w3.org/2000/svg" xmlns:xlink="http://www.w3.org/1999/xlink" x="0px" y="0px"
	 width="841.9px" height="595.3px" viewBox="0 0 841.9 595.3" enable-background="new 0 0 841.9 595.3" xml:space="preserve">
<g id="XMLID_313_">
	<defs>
		<rect id="XMLID_308_" width="841.9" height="595.3"/>
	</defs>
	<clipPath id="XMLID_312_">
		<use xlink:href="#XMLID_308_"  overflow="visible"/>
	</clipPath>
	<g id="XMLID_5_" clip-path="url(#XMLID_312_)">
		<rect id="XMLID_1_" fill="#F6A6A5" width="841.9" height="595.3"/>
		<polygon id="XMLID_2_" fill="#FF7E8E" points="0,595.3 841.9,595.3 0,0 		"/>
		<g id="XMLID_3_">
			<rect id="XMLID_306_" x="-21.5" y="-16.9" fill="#9A252D" width="741" height="472.7"/>
			<rect id="XMLID_46_" x="-18.4" y="-22.9" fill="#1A6374" width="741" height="472.7"/>
			<rect id="XMLID_47_" x="-18.4" y="-22.9" fill="#D7E4ED" width="708.9" height="441.2"/>
			<polygon id="XMLID_74_" fill="#B8C8D1" points="690.5,418.3 -18.4,418.3 -18.4,-22.9 			"/>
		</g>
		<g id="XMLID_170_">
			<g id="XMLID_164_">
				<path id="XMLID_310_" fill="#193769" d="M96.3,47.2c-4.1,12.3-6.7,24.9-7.7,37.8c-0.3,3.2,4.7,3.2,5,0c1-12.5,3.6-24.6,7.5-36.5
					C102.1,45.5,97.3,44.2,96.3,47.2L96.3,47.2z"/>
			</g>
			<g id="XMLID_174_">
				<path id="XMLID_317_" fill="#193769" d="M97.4,49.1c5.3,1.7,10.7,3.4,16,5c3.1,1,4.4-3.9,1.3-4.8c-5.3-1.7-10.7-3.4-16-5
					C95.7,43.3,94.4,48.1,97.4,49.1L97.4,49.1z"/>
			</g>
			<g id="XMLID_284_">
				<path id="XMLID_325_" fill="#193769" d="M93.3,67.6c4.7,1.9,9.4,3.8,14.1,5.6c3,1.2,4.3-3.6,1.3-4.8c-4.7-1.9-9.4-3.8-14.1-5.6
					C91.6,61.6,90.3,66.4,93.3,67.6L93.3,67.6z"/>
			</g>
			<g id="XMLID_299_">
				<path id="XMLID_333_" fill="#193769" d="M89.4,89.3c5.6,1.5,11.2,3,16.9,4.5c3.1,0.8,4.4-4,1.3-4.8c-5.6-1.5-11.2-3-16.9-4.5
					C87.6,83.6,86.3,88.4,89.4,89.3L89.4,89.3z"/>
			</g>
			<g id="XMLID_301_">
				<path id="XMLID_340_" fill="#193769" d="M142,66.1c3.3-0.4,6.6-0.9,10-1.3c1.3-0.2,1.3-2.2,0-2c-3.3,0.4-6.6,0.9-10,1.3
					C140.8,64.3,140.7,66.3,142,66.1L142,66.1z"/>
			</g>
			<g id="XMLID_302_">
				<path id="XMLID_364_" fill="#193769" d="M138.3,81c3.9-1,7.8-1.3,11.7-1c1.3,0.1,1.3-1.9,0-2c-4.1-0.3-8.2,0.1-12.3,1.1
					C136.5,79.4,137,81.3,138.3,81L138.3,81z"/>
			</g>
			<g id="XMLID_304_">
				<path id="XMLID_371_" fill="#193769" d="M162.5,59c0.2,6.6,0.7,13.1,1.2,19.7c0.1,1.7,2.3,2,2.9,0.4c0.9-2.2,2.4-6.9,4.6-8.1
					c3-1.7,2.4,5.8,2.4,7.7c0,1.6,2.7,2.1,2.9,0.4c1.9-13.8,11.9,0.8,8.7,3.2c0.6,0.1,1.2,0.2,1.8,0.2c1.1,1.4,0.5-0.6,0.1-1.3
					c-1-1.7-3.5-0.2-2.6,1.5c0,0-0.2,1.3,0.4,1.9c0.4,0.5,1.3,0.6,1.8,0.2c4.3-3.2,0.8-11.3-3-13.7c-5.6-3.5-9.4,1.8-10.2,7
					c1,0.1,2,0.3,2.9,0.4c0-2.9,0.5-11.9-4.6-11.5c-4.4,0.3-7,7.8-8.3,11.1c1,0.1,2,0.3,2.9,0.4c-0.5-6.6-1-13.1-1.2-19.7
					C165.4,57.1,162.4,57.1,162.5,59L162.5,59z"/>
			</g>
			<g id="XMLID_307_">
				<path id="XMLID_378_" fill="#193769" d="M201.4,59.6c-6.6-1.7-9.2,5.8-8.5,11.1c1.2,8.1,8.4,10.8,15.5,7.8
					c1.8-0.7,1-3.6-0.8-2.9c-5.2,2.1-10.4,1.2-11.6-4.9c-0.6-3.1,0.1-9.4,4.6-8.2C202.5,62.9,203.3,60,201.4,59.6L201.4,59.6z"/>
			</g>
			<g id="XMLID_309_">
				<path id="XMLID_385_" fill="#193769" d="M222.4,64.4c3.2-1.3,6.7-1.9,10-3c1.8-0.6,1-3.5-0.8-2.9c-3.3,1.1-6.8,1.7-10,3
					C219.8,62.3,220.6,65.2,222.4,64.4L222.4,64.4z"/>
			</g>
			<g id="XMLID_316_">
				<path id="XMLID_392_" fill="#193769" d="M224.4,72.4c3.2-1,6.3-1.3,9.6-0.9c1.9,0.2,1.9-2.8,0-3c-3.5-0.4-7,0-10.4,1.1
					C221.8,70.1,222.6,73,224.4,72.4L224.4,72.4z"/>
			</g>
			<g id="XMLID_324_">
				<path id="XMLID_399_" fill="#193769" d="M245,49.5c6.3-0.1,12.7-0.8,19-1c1.9-0.1,1.9-3.1,0-3c-6.3,0.2-12.7,0.9-19,1
					C243.1,46.5,243.1,49.5,245,49.5L245,49.5z"/>
			</g>
			<g id="XMLID_332_">
				<path id="XMLID_406_" fill="#193769" d="M253.5,47c-0.1,9-1.2,18-1,27c0,1.9,3,1.9,3,0c-0.2-9,0.9-18,1-27
					C256.5,45.1,253.5,45.1,253.5,47L253.5,47z"/>
			</g>
			<g id="XMLID_339_">
				<path id="XMLID_413_" fill="#193769" d="M258.5,47c0.7,8.3,1,16.7,1,25c0,1.9,3,1.9,3,0c0-8.3-0.3-16.7-1-25
					C261.4,45.1,258.3,45.1,258.5,47L258.5,47z"/>
			</g>
			<g id="XMLID_363_">
				<path id="XMLID_420_" fill="#193769" d="M274.6,52.6c-2.4,5.6-1.6,11.9-3,17.7c1,0.1,2,0.3,2.9,0.4c0.5-4.4,5.3-18.2,11.4-16.9
					c5.3,1.2,1.5,16.9-0.2,20.4c-0.9,1.7,1.7,3.2,2.6,1.5c2.1-4.3,2.7-9.7,2.9-14.4c0.2-3.9,0.2-9.2-4.4-10.4
					c-8.8-2.2-14.6,13.3-15.3,19.7c-0.2,1.7,2.6,2,2.9,0.4c1.4-5.8,0.6-12.1,3-17.7C278.2,51.6,275.3,50.8,274.6,52.6L274.6,52.6z"
					/>
			</g>
			<g id="XMLID_370_">
				<path id="XMLID_427_" fill="#193769" d="M294.8,44.3c0.3-0.2,2-1.6,2.4-1.3c-0.1-0.1-0.1,0.8-0.2,1.1c-0.4,1.9-1.9,3.7-3.5,4.7
					c-1.1,0.7-0.8,3,0.8,2.8c3.5-0.5,6.9-0.3,10.3,0.9c1.8,0.6,2.6-2.3,0.8-2.9c-3.6-1.2-7.4-1.5-11.1-1c0.3,0.9,0.5,1.9,0.8,2.8
					c2.7-1.8,5.4-5.1,5-8.5c-0.4-4.1-4.6-2.8-6.9-1.2C291.7,42.8,293.2,45.4,294.8,44.3L294.8,44.3z"/>
			</g>
			<g id="XMLID_377_">
				<path id="XMLID_434_" fill="#D50F98" d="M97.7,138.8c7.2,15.6,10.7,32.6,19,47.7c0.8,1.4,2.7,0.7,2.8-0.8
					c0.6-12.8-2.9-25.1-4-37.8c-0.5-5.7-1.5-12.5,5.5-13.9c4.3-0.9,8.8-0.7,13.1-1.1c11.4-1,22.7-3.2,34.1-4.4
					c12.2-1.3,24.3-2.7,36.1-6.1c1.9-0.5,1.1-3.4-0.8-2.9c-14.1,4.1-28.8,5.3-43.4,6.8c-11.5,1.2-22.8,3.1-34.3,4.1
					c-3.2,0.3-7.2,0.3-9.9,2.2c-3.5,2.4-3.9,6.9-3.7,10.7c0.6,14.2,5,28,4.3,42.3c0.9-0.3,1.9-0.5,2.8-0.8
					c-8.4-15.1-11.8-32.1-19-47.7C99.5,135.5,96.9,137,97.7,138.8L97.7,138.8z"/>
			</g>
			<g id="XMLID_384_">
				<path id="XMLID_441_" fill="#D50F98" d="M127.5,150c0.5,6.5,2.7,13.3,5.1,19.4c0.7,1.8,3.6,1,2.9-0.8
					c-2.3-5.8-4.4-12.4-4.9-18.6C130.3,148.1,127.3,148.1,127.5,150L127.5,150z"/>
			</g>
			<g id="XMLID_391_">
				<path id="XMLID_448_" fill="#D50F98" d="M141.6,155.6c-2.2,5.6-1,12.8,5.9,13.8c0.6,0.1,1.4,0,1.7-0.7c2.1-4.4-0.8-8.3-3.9-11.4
					c-1.9-1.9-4-3.6-5.8-5.6c-2.3-2.7-1.4-3.8,1.9-4.9c-0.6-0.2-1.1-0.5-1.7-0.7c2.3,3,2.1,6.8,2.8,10.3c0.4,1.9,3.3,1.1,2.9-0.8
					c-0.8-3.8-0.6-7.8-3.1-11c-0.4-0.5-1-0.9-1.7-0.7c-16.7,5.5,9.6,15.5,5.9,23.3c0.6-0.2,1.1-0.5,1.7-0.7c-5.3-0.7-5.4-6-3.8-10.1
					C145.2,154.6,142.3,153.8,141.6,155.6L141.6,155.6z"/>
			</g>
			<g id="XMLID_398_">
				<path id="XMLID_455_" fill="#D50F98" d="M166.4,153.6c-0.2,0-0.3-0.1-0.5-0.1c0,0,0.1,0,0.1,0.1c-0.3-0.2-0.2,0,0.5,0.6
					c0,0.3,0,0.5,0,0.8c-0.6,0.6-0.8,0.9-0.5,0.7c0.1,0,0.1,0-0.1,0c0.1-0.1,0.3-0.1,0.5-0.1c0.8-0.2,1.3-1.1,1-1.8
					c-0.2-0.8-1.1-1.3-1.8-1c-1,0.3-2,0.8-2,1.9c0,1.2,1.1,1.7,2,1.9c0.8,0.2,1.7-0.3,1.8-1C167.6,154.6,167.2,153.8,166.4,153.6
					L166.4,153.6z"/>
			</g>
			<g id="XMLID_405_">
				<path id="XMLID_462_" fill="#D50F98" d="M178.6,143.4c4.3,1.1,7,4.7,10.6,6.8c1.7,1,3.2-1.6,1.5-2.6c-3.9-2.3-6.8-6-11.4-7.2
					C177.5,140.1,176.7,143,178.6,143.4L178.6,143.4z"/>
			</g>
			<g id="XMLID_412_">
				<path id="XMLID_469_" fill="#D50F98" d="M200.7,135.2c-6.7,9.6-13.2,19.2-17.2,30.4c-0.6,1.8,2.3,2.6,2.9,0.8
					c3.8-10.9,10.3-20.3,16.8-29.6C204.4,135.2,201.8,133.7,200.7,135.2L200.7,135.2z"/>
			</g>
			<g id="XMLID_419_">
				<path id="XMLID_476_" fill="#D50F98" d="M210,145.5c5.2,0.1,10.4,0.3,15.5,1.1c-0.2-0.8-0.4-1.7-0.7-2.5
					c-5.5,4.6-11.1,9.3-17.1,13.4c-1.2,0.8-0.8,2.8,0.8,2.8c5.6,0.1,10.8,1.6,16.1,3.1c1.9,0.5,2.7-2.4,0.8-2.9
					c-5.6-1.6-11.1-3.1-16.9-3.3c0.3,0.9,0.5,1.9,0.8,2.8c6.2-4.2,12-9,17.7-13.8c0.8-0.7,0.4-2.3-0.7-2.5
					c-5.4-0.9-10.8-1.2-16.3-1.3C208.1,142.5,208.1,145.5,210,145.5L210,145.5z"/>
			</g>
			<g id="XMLID_426_">
				<g id="XMLID_688_">
					<g id="XMLID_689_">
						<path id="XMLID_690_" fill="#44A09F" d="M299.6,132.4c2.2,5.6,6.7,9.8,11.7,12.9c1.6,1,3.1-1.6,1.5-2.6
							c-4.3-2.7-8.5-6.3-10.3-11.1C301.8,129.8,298.9,130.6,299.6,132.4L299.6,132.4z"/>
					</g>
				</g>
			</g>
			<g id="XMLID_433_">
				<g id="XMLID_678_">
					<g id="XMLID_681_">
						<path id="XMLID_682_" fill="#44A09F" d="M312.6,136.6c-2.1,7.9-3.5,16-5,24c-0.3,1.9,2.5,2.7,2.9,0.8c1.5-8,2.9-16.1,5-24
							C315.9,135.5,313.1,134.7,312.6,136.6L312.6,136.6z"/>
					</g>
				</g>
			</g>
			<g id="XMLID_440_">
				<g id="XMLID_670_">
					<g id="XMLID_671_">
						<path id="XMLID_674_" fill="#44A09F" d="M318.7,134.8c2.7,3.6,6.8,6,9,10c0.9,1.7,3.5,0.2,2.6-1.5c-2.2-4-6.3-6.4-9-10
							C320.2,131.7,317.5,133.2,318.7,134.8L318.7,134.8z"/>
					</g>
				</g>
			</g>
			<g id="XMLID_447_">
				<g id="XMLID_662_">
					<g id="XMLID_663_">
						<path id="XMLID_664_" fill="#44A09F" d="M326.9,130.9c-4,3.5-5,8.7-7.2,13.3c-0.8,1.7,1.8,3.3,2.6,1.5c2.1-4.3,3-9.4,6.8-12.7
							C330.5,131.8,328.4,129.7,326.9,130.9L326.9,130.9z"/>
					</g>
				</g>
			</g>
			<g id="XMLID_454_">
				<g id="XMLID_646_">
					<path id="XMLID_647_" fill="#44A09F" d="M343.6,136.4c5.4,1.8,13.3,0.7,18.2-2.2c1.7-1,0.2-3.6-1.5-2.6
						c-4.2,2.5-11.2,3.4-15.8,1.8C342.6,132.9,341.8,135.8,343.6,136.4L343.6,136.4z"/>
				</g>
			</g>
			<g id="XMLID_461_">
				<g id="XMLID_641_">
					<path id="XMLID_642_" fill="#44A09F" d="M368.2,127.3c4.4,2.2,8.9,4.3,13,7c1.6,1.1,3.1-1.5,1.5-2.6c-4.1-2.7-8.6-4.8-13-7
						C368,123.8,366.5,126.4,368.2,127.3L368.2,127.3z"/>
				</g>
			</g>
			<g id="XMLID_468_">
				<g id="XMLID_636_">
					<path id="XMLID_639_" fill="#44A09F" d="M377.7,121.2c-2.9,4.2-5.5,8.5-5.2,13.8c0.1,1.9,3.1,1.9,3,0
						c-0.3-4.8,2.2-8.5,4.8-12.2C381.4,121.2,378.8,119.7,377.7,121.2L377.7,121.2z"/>
				</g>
			</g>
			<g id="XMLID_475_">
				<g id="XMLID_633_">
					<path id="XMLID_634_" fill="#44A09F" d="M388,129.5c4.2,0.2,8.3-0.4,12.4-1.1c1.9-0.3,1.1-3.2-0.8-2.9
						c-3.9,0.6-7.7,1.2-11.6,0.9C386.1,126.4,386.1,129.4,388,129.5L388,129.5z"/>
				</g>
			</g>
			<g id="XMLID_482_">
				<g id="XMLID_628_">
					<path id="XMLID_629_" fill="#44A09F" d="M393.5,121c-0.1,4.9,0.7,9.7,2.1,14.4c0.5,1.9,3.4,1.1,2.9-0.8
						c-1.3-4.5-2-8.9-1.9-13.6C396.5,119.1,393.5,119.1,393.5,121L393.5,121z"/>
				</g>
			</g>
			<g id="XMLID_489_">
				<g id="XMLID_625_">
					<path id="XMLID_626_" fill="#44A09F" d="M407.4,120.4c3-1.2,6-1.8,9.3-1.8c-0.4-0.8-0.9-1.5-1.3-2.3c-3.4,4.6-5.7,9.7-8.3,14.7
						c-0.5,0.9,0.1,2.4,1.3,2.3c3.4-0.3,6.8-0.9,10-1.9c1.8-0.5,1.1-3.4-0.8-2.9c-3,0.9-6.1,1.5-9.2,1.8c0.4,0.8,0.9,1.5,1.3,2.3
						c2.6-5,4.9-10.1,8.3-14.7c0.7-0.9-0.2-2.3-1.3-2.3c-3.5,0-6.8,0.6-10.1,1.9C404.8,118.2,405.6,121.2,407.4,120.4L407.4,120.4z"
						/>
				</g>
			</g>
			<g id="XMLID_496_">
				<g id="XMLID_620_">
					<path id="XMLID_621_" fill="#44A09F" d="M433,121.5c2.7,0,5.3,0,8,0c1.9,0,1.9-3,0-3c-2.7,0-5.3,0-8,0
						C431.1,118.5,431.1,121.5,433,121.5L433,121.5z"/>
				</g>
			</g>
			<g id="XMLID_503_">
				<g id="XMLID_615_">
					<path id="XMLID_618_" fill="#44A09F" d="M436.4,129.4c2.2-0.5,4.4-0.8,6.6-0.9c1.9-0.1,1.9-3.1,0-3c-2.5,0.2-5,0.5-7.4,1.1
						C433.7,127,434.5,129.8,436.4,129.4L436.4,129.4z"/>
				</g>
			</g>
			<g id="XMLID_510_">
				<g id="XMLID_612_">
					<path id="XMLID_613_" fill="#44A09F" d="M451.4,114.4c1.4-3.5,4.6-5,8-5.9c-0.6-0.3-1.2-0.7-1.8-1c2.6,7.2-1.8,12.9-5.6,18.6
						c-0.8,1.1,0.5,2.5,1.7,2.2c3.5-0.8,7.1-1,10.6-1.8c1.9-0.4,1.1-3.3-0.8-2.9c-3.5,0.8-7.1,1-10.6,1.8c0.6,0.7,1.1,1.5,1.7,2.2
						c4.3-6.5,8.7-12.9,5.9-20.9c-0.3-0.8-1-1.3-1.8-1c-4.6,1.2-8.4,3.4-10.1,7.9C447.9,115.4,450.8,116.2,451.4,114.4L451.4,114.4z
						"/>
				</g>
			</g>
			<g id="XMLID_517_">
				<g id="XMLID_607_">
					<path id="XMLID_608_" fill="#44A09F" d="M312.9,171.1c3.9,4.7,9,8,14.7,10.4c1.8,0.7,2.6-2.2,0.8-2.9
						c-5.1-2.2-9.8-5.3-13.3-9.6C313.8,167.5,311.7,169.6,312.9,171.1L312.9,171.1z"/>
				</g>
			</g>
			<g id="XMLID_525_">
				<g id="XMLID_604_">
					<path id="XMLID_605_" fill="#44A09F" d="M320.6,166.6c-2,5.9-2.5,12-4,18c-0.5,1.9,2.4,2.7,2.9,0.8c1.5-6,2-12.1,4-18
						C324.1,165.6,321.2,164.8,320.6,166.6L320.6,166.6z"/>
				</g>
			</g>
			<g id="XMLID_532_">
				<g id="XMLID_599_">
					<path id="XMLID_600_" fill="#44A09F" d="M341.2,171.3c4.9,2.4,10.4-0.5,15.2-1.8c1.9-0.5,1.1-3.4-0.8-2.9c-3.7,1-9,4-12.8,2.2
						C341,167.9,339.5,170.5,341.2,171.3L341.2,171.3z"/>
				</g>
			</g>
			<g id="XMLID_539_">
				<g id="XMLID_594_">
					<path id="XMLID_597_" fill="#44A09F" d="M346.7,163.8c2.5,5.7,2.5,13.8,7.2,18.3c1.4,1.3,3.5-0.8,2.1-2.1
						c-2.3-2.2-3.1-5.9-3.9-8.9c-0.9-3-1.6-5.9-2.8-8.8C348.5,160.5,346,162,346.7,163.8L346.7,163.8z"/>
				</g>
			</g>
			<g id="XMLID_546_">
				<g id="XMLID_591_">
					<path id="XMLID_592_" fill="#44A09F" d="M365,158.5c4,0.4,8.7,0.7,12.2,2.8c1.7,1,3.2-1.6,1.5-2.6c-4.1-2.4-9.2-2.8-13.8-3.2
						C363.1,155.3,363.1,158.3,365,158.5L365,158.5z"/>
				</g>
			</g>
			<g id="XMLID_553_">
				<g id="XMLID_586_">
					<path id="XMLID_587_" fill="#44A09F" d="M381.7,149.2c-4.3,6.3-7.6,13.2-11,20c-0.9,1.7,1.7,3.2,2.6,1.5
						c3.4-6.8,6.7-13.7,11-20C385.4,149.2,382.8,147.7,381.7,149.2L381.7,149.2z"/>
				</g>
			</g>
			<g id="XMLID_560_">
				<g id="XMLID_583_">
					<path id="XMLID_584_" fill="#44A09F" d="M387.9,153.1c3.1,4,7.8,6.1,11,10c1.2,1.5,3.3-0.6,2.1-2.1c-3.2-3.9-7.9-6.1-11-10
						C388.9,149.4,386.8,151.6,387.9,153.1L387.9,153.1z"/>
				</g>
			</g>
			<g id="XMLID_567_">
				<g id="XMLID_578_">
					<path id="XMLID_579_" fill="#44A09F" d="M396.9,148.9c-3.6,3.8-5.7,8.7-8.2,13.3c-0.9,1.7,1.7,3.2,2.6,1.5
						c2.4-4.3,4.4-9.1,7.8-12.7C400.4,149.7,398.3,147.5,396.9,148.9L396.9,148.9z"/>
				</g>
			</g>
			<g id="XMLID_574_">
				<g id="XMLID_573_">
					<path id="XMLID_576_" fill="#44A09F" d="M409,157.5c5.4-0.5,10.5-2.5,16-2c1.9,0.2,1.9-2.8,0-3c-5.5-0.5-10.6,1.5-16,2
						C407.1,154.7,407.1,157.7,409,157.5L409,157.5z"/>
				</g>
			</g>
			<g id="XMLID_581_">
				<g id="XMLID_570_">
					<path id="XMLID_571_" fill="#44A09F" d="M431.4,147.4c3.3-0.6,6.6-1.2,9.8-1.8c-0.6-0.6-1.2-1.2-1.8-1.8
						c-1.4,6.5-6,11.5-9.3,17.1c-0.8,1.3,0.8,2.8,2.1,2.1c4.2-2.3,8.8-3,13.3-4.5c1.8-0.6,1-3.5-0.8-2.9c-4.7,1.6-9.6,2.3-14,4.8
						c0.7,0.7,1.4,1.4,2.1,2.1c3.5-5.8,8.2-11,9.6-17.8c0.2-1.2-0.7-2.1-1.8-1.8c-3.3,0.7-6.6,1.3-9.8,1.8
						C428.7,144.9,429.5,147.8,431.4,147.4L431.4,147.4z"/>
				</g>
			</g>
			<g id="XMLID_588_">
				<g id="XMLID_565_">
					<path id="XMLID_566_" fill="#44A09F" d="M453,151.5c2.9,0.1,5.7-0.3,8.4-1.1c1.9-0.5,1.1-3.4-0.8-2.9c-2.5,0.7-5,1-7.6,0.9
						C451.1,148.4,451.1,151.4,453,151.5L453,151.5z"/>
				</g>
			</g>
			<g id="XMLID_595_">
				<g id="XMLID_562_">
					<path id="XMLID_563_" fill="#44A09F" d="M456,157.5c2.3,0,4.7,0,7,0c1.9,0,1.9-3,0-3c-2.3,0-4.7,0-7,0
						C454.1,154.5,454.1,157.5,456,157.5L456,157.5z"/>
				</g>
			</g>
			<g id="XMLID_602_">
				<g id="XMLID_557_">
					<path id="XMLID_558_" fill="#44A09F" d="M469.3,143.8c4-6.6,8.9,0,12,3.9c1.4,1.8,4.5,7.4,7.5,5.7c1.7-1,0.1-3.6-1.5-2.6
						c0.6-0.3,0.4,0-0.1-0.6c-0.4-0.4-0.7-0.8-1.1-1.2c-0.8-0.9-1.5-1.9-2.2-2.8c-1.7-2.2-3.5-4.5-5.8-6.3
						c-4.4-3.4-8.5-2.1-11.3,2.5C465.7,143.9,468.3,145.4,469.3,143.8L469.3,143.8z"/>
				</g>
			</g>
			<g id="XMLID_609_">
				<g id="XMLID_552_">
					<path id="XMLID_555_" fill="#44A09F" d="M478.9,143.9c-3.3,3.5-5,8.1-6.4,12.7c-0.5,1.9,2.3,2.6,2.9,0.8
						c1.2-4,2.7-8.3,5.6-11.3C482.4,144.7,480.3,142.5,478.9,143.9L478.9,143.9z"/>
				</g>
			</g>
			<g id="XMLID_616_">
				<g id="XMLID_549_">
					<path id="XMLID_550_" fill="#44A09F" d="M321.9,203.1c2.9,2.7,5.8,5.4,9.3,7.2c1.7,0.9,3.2-1.7,1.5-2.6c-3.3-1.7-6-4.2-8.7-6.8
						C322.7,199.6,320.5,201.7,321.9,203.1L321.9,203.1z"/>
				</g>
			</g>
			<g id="XMLID_623_">
				<g id="XMLID_544_">
					<path id="XMLID_545_" fill="#44A09F" d="M331.6,200.6c-2.1,6.9-3.4,14.2-3.1,21.4c0.1,1.9,3.1,1.9,3,0c-0.4-7,0.9-14,2.9-20.6
						C335,199.5,332.1,198.8,331.6,200.6L331.6,200.6z"/>
				</g>
			</g>
			<g id="XMLID_630_">
				<g id="XMLID_541_">
					<path id="XMLID_542_" fill="#44A09F" d="M346.4,207.4c4.8-0.7,9.3-2.6,14-4c1.8-0.5,1.1-3.4-0.8-2.9c-4.7,1.4-9.2,3.3-14,4
						C343.7,204.8,344.5,207.7,346.4,207.4L346.4,207.4z"/>
				</g>
			</g>
			<g id="XMLID_637_">
				<g id="XMLID_536_">
					<path id="XMLID_537_" fill="#44A09F" d="M351.6,198.4c2,5.1,4.6,10,4.9,15.6c0.1,1.9,3.1,1.9,3,0c-0.3-5.9-3-11-5.1-16.4
						C353.8,195.8,350.9,196.6,351.6,198.4L351.6,198.4z"/>
				</g>
			</g>
			<g id="XMLID_644_">
				<g id="XMLID_531_">
					<path id="XMLID_534_" fill="#44A09F" d="M374.2,192.3c4.4,2.6,8.4,5.8,13,8c1.7,0.8,3.3-1.8,1.5-2.6c-4.6-2.2-8.6-5.4-13-8
						C374.1,188.7,372.6,191.3,374.2,192.3L374.2,192.3z"/>
				</g>
			</g>
			<g id="XMLID_651_">
				<g id="XMLID_528_">
					<path id="XMLID_529_" fill="#44A09F" d="M383.7,187.2c-1.2,2.8-2.7,5.5-3.9,8.4c-0.9,2.1-1.9,4.5-1.3,6.8
						c0.6,1.8,3.5,1.1,2.9-0.8c-0.6-1.9,1-4.6,1.7-6.2c1-2.2,2.1-4.4,3.1-6.6C387.1,187,384.5,185.5,383.7,187.2L383.7,187.2z"/>
				</g>
			</g>
			<g id="XMLID_658_">
				<g id="XMLID_523_">
					<path id="XMLID_524_" fill="#44A09F" d="M399.4,193.4c4.1-0.7,7.9-2.3,12-3c1.9-0.3,1.1-3.2-0.8-2.9c-4.1,0.7-7.9,2.3-12,3
						C396.7,190.9,397.5,193.8,399.4,193.4L399.4,193.4z"/>
				</g>
			</g>
			<g id="XMLID_665_">
				<g id="XMLID_520_">
					<path id="XMLID_521_" fill="#44A09F" d="M403.6,185.4c1.2,4.7,3.1,9.2,4,14c0.4,1.9,3.2,1.1,2.9-0.8c-0.9-4.8-2.8-9.3-4-14
						C406,182.7,403.1,183.5,403.6,185.4L403.6,185.4z"/>
				</g>
			</g>
			<g id="XMLID_672_">
				<g id="XMLID_514_">
					<path id="XMLID_515_" fill="#44A09F" d="M420.8,178.3c4.6-2.1,8.1,4.3,10.2,7.3c2.1,3.1,4.1,6.6,7.3,8.7c1.6,1,3.1-1.6,1.5-2.6
						c-6.5-4.2-10.2-20.8-20.5-16C417.5,176.5,419,179.1,420.8,178.3L420.8,178.3z"/>
				</g>
			</g>
			<g id="XMLID_679_">
				<g id="XMLID_509_">
					<path id="XMLID_512_" fill="#44A09F" d="M428.6,183.6c-0.7,4.4-1.8,8.7-3,13c-0.5,1.9,2.4,2.7,2.9,0.8c1.2-4.3,2.3-8.6,3-13
						C431.8,182.5,428.9,181.7,428.6,183.6L428.6,183.6z"/>
				</g>
			</g>
			<g id="XMLID_686_">
				<g id="XMLID_506_">
					<path id="XMLID_507_" fill="#44A09F" d="M446.4,181.4c2.5-0.6,5-0.9,7.6-0.9c1.9,0,1.9-3,0-3c-2.8,0.1-5.6,0.4-8.4,1.1
						C443.7,179,444.5,181.9,446.4,181.4L446.4,181.4z"/>
				</g>
			</g>
			<g id="XMLID_693_">
				<g id="XMLID_501_">
					<path id="XMLID_502_" fill="#44A09F" d="M450.6,184.4c0.9,0.3,2.4-0.5,3.2-0.7c1.5-0.4,3.1-0.9,4.6-1.3
						c1.9-0.5,1.1-3.4-0.8-2.9c-1.4,0.4-2.8,0.8-4.1,1.2c-0.6,0.2-1.3,0.4-1.9,0.6c-0.2,0.1-0.4,0.1-0.6,0.2
						c-0.5,0.2-0.4-0.2,0.5,0.1C449.6,180.9,448.8,183.8,450.6,184.4L450.6,184.4z"/>
				</g>
			</g>
			<g id="XMLID_700_">
				<g id="XMLID_498_">
					<path id="XMLID_499_" fill="#44A09F" d="M467.1,172.1c4.9-5.5,8.6,0,11.7,4.4c2.4,3.5,4.7,7.7,8.5,9.8c1.7,1,3.2-1.6,1.5-2.6
						c-7.3-4.1-13.3-25.4-23.8-13.8C463.6,171.4,465.8,173.5,467.1,172.1L467.1,172.1z"/>
				</g>
			</g>
			<g id="XMLID_707_">
				<g id="XMLID_493_">
					<path id="XMLID_494_" fill="#44A09F" d="M476.6,174.6c-1.2,3.3-2.2,6.6-3,10c-0.5,1.9,2.4,2.7,2.9,0.8c0.8-3.4,1.8-6.7,3-10
						C480.1,173.6,477.2,172.8,476.6,174.6L476.6,174.6z"/>
				</g>
			</g>
			<g id="XMLID_714_">
				<path id="XMLID_771_" fill="#44A09F" d="M266.5,244c2.9,24.2,11.7,47.5,12,72c0,1.9,3,1.9,3,0c-0.3-24.6-9.1-47.8-12-72
					C269.3,242.1,266.3,242.1,266.5,244L266.5,244z"/>
			</g>
			<g id="XMLID_721_">
				<path id="XMLID_778_" fill="#44A09F" d="M276,318.5c29-1.8,55.9-15,85-16c1.9-0.1,1.9-3.1,0-3c-29.1,1-56,14.2-85,16
					C274.1,315.6,274.1,318.6,276,318.5L276,318.5z"/>
			</g>
			<g id="XMLID_728_">
				<path id="XMLID_785_" fill="#44A09F" d="M280.4,304.4c7.5-1.3,11.2,5.9,13.2,12c0.6,1.8,3.5,1,2.9-0.8
					c-2.6-7.8-7.5-15.7-16.8-14C277.7,301.9,278.5,304.8,280.4,304.4L280.4,304.4z"/>
			</g>
			<g id="XMLID_735_">
				<path id="XMLID_792_" fill="#44A09F" d="M283.8,318.3c21.6-15.6,39.1-35.9,58.3-54.2c1.4-1.3-0.7-3.5-2.1-2.1
					c-19,18.2-36.3,38.3-57.7,53.8C280.7,316.8,282.2,319.4,283.8,318.3L283.8,318.3z"/>
			</g>
			<g id="XMLID_742_">
				<path id="XMLID_799_" fill="#44A09F" d="M331.8,265.3c3.5-2.3,7.5-3.4,11.7-2.7c-0.3-0.6-0.7-1.2-1-1.8
					c-1.3,5.9-5,10.8-5.9,16.8c-0.3,1.9,2.6,2.7,2.9,0.8c0.9-6,4.6-11,5.9-16.8c0.2-0.7-0.2-1.7-1-1.8c-5-0.9-9.8,0.2-14.1,3
					C328.6,263.8,330.1,266.4,331.8,265.3L331.8,265.3z"/>
			</g>
			<g id="XMLID_749_">
				<path id="XMLID_806_" fill="#D50F98" d="M253,275.5c-11.1,1.3-20.2,8.4-31.1,10.2c-1.4,0.2-1.3,2.1-0.4,2.7
					c9.5,6.2,21.2,6.4,31.8,9.6c-0.2-0.8-0.4-1.7-0.7-2.5c-8.2,7.6-17.7,13.3-26.5,20.2c-1.1,0.9-0.1,2.5,1.1,2.6
					c11.6,0.7,22.1-5.5,33.6-5c0.9,0,1.4-0.7,1.5-1.5c0.2-2,0.4-3.9,0.2-5.8c-0.2-1.9-3.2-1.9-3,0c0.3,2,0.1,3.9-0.2,5.8
					c0.5-0.5,1-1,1.5-1.5c-11.5-0.5-22,5.7-33.6,5c0.4,0.9,0.7,1.7,1.1,2.6c8.8-6.8,18.3-12.6,26.5-20.2c0.9-0.8,0.4-2.2-0.7-2.5
					c-10.3-3.1-21.9-3.3-31.1-9.3c-0.1,0.9-0.2,1.8-0.4,2.7c10.6-1.8,19.6-8.9,30.3-10.1C254.9,278.3,254.9,275.3,253,275.5
					L253,275.5z"/>
			</g>
			<g id="XMLID_756_">
				<path id="XMLID_813_" fill="#D50F98" d="M251.6,278.4c0.4,2.1,1.3,4.4,2.2,6.4c0.3,0.7,1.4,0.9,2.1,0.5c0.8-0.4,0.9-1.3,0.5-2.1
					c-0.8-1.8-1.5-3.8-1.8-5.6C254.1,275.7,251.2,276.5,251.6,278.4L251.6,278.4z"/>
			</g>
			<g id="XMLID_763_">
				<path id="XMLID_820_" fill="#44A09F" d="M265.2,232.3c3.6,1.6,6.7,4.2,9.7,6.8c1.5,1.2,3.6-0.9,2.1-2.1
					c-3.2-2.7-6.4-5.5-10.3-7.2C265,228.9,263.5,231.5,265.2,232.3L265.2,232.3z"/>
			</g>
			<g id="XMLID_770_">
				<path id="XMLID_827_" fill="#44A09F" d="M277.9,225.9c-4.8,5.3-7.1,14.5-5.4,21.5c0.5,1.9,3.4,1.1,2.9-0.8
					c-1.5-5.8,0.6-14.1,4.6-18.5C281.4,226.6,279.2,224.5,277.9,225.9L277.9,225.9z"/>
			</g>
			<g id="XMLID_777_">
				<path id="XMLID_834_" fill="#44A09F" d="M369,294.5c4.5,0.4,9.3,2.8,13.2,4.8c1.7,0.9,3.2-1.7,1.5-2.6
					c-4.5-2.2-9.7-4.8-14.8-5.2C367.1,291.3,367.1,294.3,369,294.5L369,294.5z"/>
			</g>
			<g id="XMLID_784_">
				<path id="XMLID_841_" fill="#44A09F" d="M381.2,287.7c-4.3,2.6-6.8,7-7.7,11.9c-0.3,1.9,2.6,2.7,2.9,0.8
					c0.7-4.1,2.6-7.9,6.3-10.1C384.4,289.3,382.9,286.7,381.2,287.7L381.2,287.7z"/>
			</g>
			<g id="XMLID_791_">
				<path id="XMLID_848_" fill="#FEFF16" d="M410.5,314c-0.4-11.9,11.4-7.3,18.9-6.2c7.1,1.1,11.5-1.4,10-9.2
					c-0.4-1.9-3.3-1.1-2.9,0.8c0.9,4.5-0.7,6.1-5.1,5.6c-3.8-0.4-7.5-1.5-11.4-1.9c-7.9-0.9-12.8,2.6-12.6,10.9
					C407.6,315.9,410.6,315.9,410.5,314L410.5,314z"/>
			</g>
			<g id="XMLID_798_">
				<path id="XMLID_855_" fill="#FEFF16" d="M449,297.5c3,0.2,5.8,1,8.2,2.8c1.6,1.2,3-1.5,1.5-2.6c-2.8-2.1-6.3-3-9.8-3.2
					C447.1,294.4,447.1,297.4,449,297.5L449,297.5z"/>
			</g>
			<g id="XMLID_805_">
				<path id="XMLID_862_" fill="#FEFF16" d="M453.9,289.9c-3.4,3.7-5.9,8-6.4,13.1c-0.2,1.9,2.8,1.9,3,0c0.4-4.2,2.7-7.9,5.6-10.9
					C457.4,290.6,455.3,288.5,453.9,289.9L453.9,289.9z"/>
			</g>
			<g id="XMLID_812_">
				<path id="XMLID_869_" fill="#FEFF16" d="M466.2,285.3c2.7,2.1,5.9,3.4,9,5c1.7,0.9,3.2-1.7,1.5-2.6c-3.1-1.6-6.3-2.9-9-5
					C466.2,281.5,464.7,284.1,466.2,285.3L466.2,285.3z"/>
			</g>
			<g id="XMLID_819_">
				<path id="XMLID_876_" fill="#FEFF16" d="M476.7,281.2c-3.7,5.8-4.6,13-4.2,19.8c0.1,1.9,3.1,1.9,3,0c-0.4-6.2,0.3-12.9,3.8-18.2
					C480.3,281.1,477.7,279.6,476.7,281.2L476.7,281.2z"/>
			</g>
			<g id="XMLID_826_">
				<path id="XMLID_883_" fill="#FEFF16" d="M421.8,379.3c15.2-9.6,32-16.2,48.6-22.8c1.8-0.7,1-3.6-0.8-2.9
					c-16.9,6.8-33.9,13.4-49.4,23.2C418.6,377.7,420.1,380.3,421.8,379.3L421.8,379.3z"/>
			</g>
			<g id="XMLID_833_">
				<path id="XMLID_890_" fill="#FEFF16" d="M425.4,362.4c4.2-1.5,8.5-2.8,12.8-3.9c-0.6-0.3-1.2-0.7-1.8-1
					c0.7,3.5,1.6,9.5,4.9,11.8c1.6,1.1,3.1-1.5,1.5-2.6c-2.3-1.5-3-7.5-3.5-10c-0.2-0.8-1.1-1.2-1.8-1c-4.3,1.1-8.6,2.3-12.8,3.9
					C422.8,360.2,423.6,363.1,425.4,362.4L425.4,362.4z"/>
			</g>
			<g id="XMLID_840_">
				<path id="XMLID_897_" fill="#D50F98" d="M444.5,42c0.2,6.2,0.8,12.8,3.1,18.6c0.6,1.5,3,1.4,2.9-0.4c-0.1-4.8-1.5-11.5,3.1-14.7
					c-0.7-0.2-1.4-0.4-2.1-0.5c2.1,3,3,6.1,3.2,9.7c0.1,1.7,2.4,2,2.9,0.4c0.9-2.5,2.5-4.7,3.6-7.1c-0.8,0.1-1.6,0.2-2.4,0.3
					c2.9,3.3,3.3,8.7,7.4,11c1.7,0.9,3.2-1.6,1.5-2.6c-3.3-1.9-4.2-7.6-6.8-10.5c-0.6-0.7-2-0.6-2.4,0.3c-1.2,2.7-2.9,5.1-3.9,7.8
					c1,0.1,2,0.3,2.9,0.4c-0.3-4.1-1.2-7.8-3.6-11.2c-0.4-0.6-1.3-1-2.1-0.5c-5.8,4-4.7,11-4.5,17.3c1-0.1,2-0.3,2.9-0.4
					c-2.1-5.6-2.8-11.9-2.9-17.8C447.4,40.1,444.4,40.1,444.5,42L444.5,42z"/>
			</g>
			<g id="XMLID_847_">
				<path id="XMLID_904_" fill="#D50F98" d="M484,39.5c-7.1,0.7-9,7.7-7,13.8c1.8,5.4,7.2,9.9,12,4.8c1.3-1.4-0.8-3.5-2.1-2.1
					c-3.3,3.5-6.2-0.6-7.2-3.9c-1.2-3.9-0.7-9,4.2-9.5C485.9,42.3,485.9,39.3,484,39.5L484,39.5z"/>
			</g>
			<g id="XMLID_854_">
				<path id="XMLID_911_" fill="#D50F98" d="M485.8,30.3c1.5-0.7,3-0.9,4.7-0.7c-0.3-0.6-0.7-1.2-1-1.8c-0.5,3.3-0.2,7.4,2.5,9.8
					c2.8,2.4,6,0.8,8.2-1.5c1.3-1.4-0.8-3.5-2.1-2.1c-1.5,1.6-3.4,2.9-4.8,0.4c-1-1.7-1.1-3.9-0.8-5.8c0.1-0.7-0.2-1.7-1-1.8
					c-2.5-0.4-4.7,0-7,1C482.5,28.5,484,31.1,485.8,30.3L485.8,30.3z"/>
			</g>
			<g id="XMLID_861_">
				<path id="XMLID_918_" fill="#D50F98" d="M510,46.5c4.2,0.1,8.2-1,11.8-3.2c1.6-1,0.1-3.6-1.5-2.6c-3.2,2-6.5,2.9-10.2,2.8
					C508.1,43.5,508.1,46.5,510,46.5L510,46.5z"/>
			</g>
			<g id="XMLID_868_">
				<path id="XMLID_925_" fill="#D50F98" d="M511,54.5c3.3-0.2,6.4-0.8,9.4-2.1c1.8-0.7,1-3.6-0.8-2.9c-2.8,1.1-5.6,1.8-8.6,1.9
					C509.1,51.6,509.1,54.6,511,54.5L511,54.5z"/>
			</g>
			<g id="XMLID_875_">
				<path id="XMLID_932_" fill="#D50F98" d="M539.4,32.6c-3.7-0.8-7.7-0.2-9.7,3.3c-1.7,3-1.5,7-0.4,10.3c1,3.3,3.1,6.6,6.3,8.1
					c3.9,1.8,7.7-0.3,10.5-3.1c1.3-1.4-0.8-3.5-2.1-2.1c-1.9,2-4.6,3.8-7.4,2.4c-2.3-1.1-3.7-3.7-4.4-6c-1.7-5.3-0.2-11.3,6.4-9.9
					C540.5,35.8,541.3,33,539.4,32.6L539.4,32.6z"/>
			</g>
			<g id="XMLID_882_">
				<path id="XMLID_939_" fill="#D50F98" d="M555.6,30.6c-1.9,6.4,3.3,12.9,2.9,19.4c-0.1,1.9,2.9,1.9,3,0c0.2-3.1-0.6-6.1-1.5-9.1
					c-0.9-2.9-2.5-6.4-1.6-9.5C559,29.5,556.1,28.8,555.6,30.6L555.6,30.6z"/>
			</g>
			<g id="XMLID_889_">
				<path id="XMLID_946_" fill="#D50F98" d="M563.6,28.4c1.2,5,2.6,10,4,15c0.5,1.9,3.4,1.1,2.9-0.8c-1.4-5-2.8-10-4-15
					C566,25.7,563.1,26.5,563.6,28.4L563.6,28.4z"/>
			</g>
			<g id="XMLID_896_">
				<path id="XMLID_953_" fill="#D50F98" d="M550.8,33.3c4.6-3,10.2-4.1,15.6-4.8c1.9-0.3,1.1-3.1-0.8-2.9c-5.7,0.8-11.5,2-16.4,5.2
					C547.6,31.8,549.1,34.4,550.8,33.3L550.8,33.3z"/>
			</g>
			<g id="XMLID_903_">
				<path id="XMLID_960_" fill="#FFFFFF" d="M63.6,223.4c7.7,28.1,3,57.9,2.9,86.6c0,1.9,3,1.9,3,0c0.1-29,4.8-59-3.1-87.4
					C65.9,220.7,63,221.5,63.6,223.4L63.6,223.4z"/>
			</g>
			<g id="XMLID_910_">
				<path id="XMLID_967_" fill="#FFFFFF" d="M69,309.5c19.3,0,38.7-0.8,58-2.1c9.3-0.6,18.6-1.9,27.8-2c6.4,0,13.4,1.4,19.6-1
					c1.8-0.7,1-3.6-0.8-2.9c-6.2,2.5-13.6,0.8-20.1,0.9c-9.5,0.2-19,1.5-28.5,2.1c-18.6,1.1-37.3,1.9-56,1.9
					C67.1,306.5,67.1,309.5,69,309.5L69,309.5z"/>
			</g>
			<g id="XMLID_917_">
				<path id="XMLID_974_" fill="#FFFFFF" d="M63.2,223.3c11.2,7.8,21.8,16.4,32.4,25c9.3,7.6,19.1,14.6,28.4,22.2
					c14.9,12,31,28.4,50.6,31.9c1.9,0.3,2.7-2.6,0.8-2.9c-20.4-3.7-36.8-21.4-52.5-33.7c-19.2-15.1-38.1-31.1-58.2-45.1
					C63.2,219.6,61.7,222.2,63.2,223.3L63.2,223.3z"/>
			</g>
			<g id="XMLID_924_">
				<path id="XMLID_981_" fill="#FFFFFF" d="M66.6,295.4c7.7,1.7,9.5,9.5,12,16c0.7,1.8,3.6,1,2.9-0.8c-2.9-7.5-5.2-16.1-14-18
					C65.5,292.1,64.7,295,66.6,295.4L66.6,295.4z"/>
			</g>
			<g id="XMLID_931_">
				<path id="XMLID_988_" fill="#FFFFFF" d="M67,243.5c6.2,0.6,10.8-3.4,13.3-8.7c0.8-1.7-1.8-3.3-2.6-1.5
					c-2.1,4.5-5.5,7.8-10.7,7.3C65.1,240.3,65.1,243.3,67,243.5L67,243.5z"/>
			</g>
			<g id="XMLID_938_">
				<path id="XMLID_995_" fill="#FFFFFF" d="M150.5,307c-0.5-4.9,1.2-8.8,5.3-11.7c1.6-1.1,0.1-3.7-1.5-2.6
					c-4.9,3.4-7.4,8.3-6.7,14.3C147.7,308.9,150.7,308.9,150.5,307L150.5,307z"/>
			</g>
			<g id="XMLID_945_">
				<path id="XMLID_1002_" fill="#193769" d="M49,219.5c1.9,0,1.9-3,0-3C47.1,216.5,47.1,219.5,49,219.5L49,219.5z"/>
			</g>
			<g id="XMLID_952_">
				<path id="XMLID_1009_" fill="#FFFFFF" d="M50.5,219c0.4-6.2,1.4-12.5,3.7-18.3c-1,0-1.9,0-2.9,0c2.5,6.4,4.6,13,6.3,19.7
					c0.5,1.9,3.4,1.1,2.9-0.8c-1.7-6.7-3.7-13.3-6.3-19.7c-0.6-1.4-2.3-1.4-2.9,0c-2.4,6.1-3.3,12.6-3.8,19.1
					C47.4,220.9,50.4,220.9,50.5,219L50.5,219z"/>
			</g>
			<g id="XMLID_959_">
				<path id="XMLID_1016_" fill="#FFFFFF" d="M51,216.5c3,0,6,0,9,0c1.9,0,1.9-3,0-3c-3,0-6,0-9,0C49.1,213.5,49.1,216.5,51,216.5
					L51,216.5z"/>
			</g>
			<g id="XMLID_966_">
				<path id="XMLID_1023_" fill="#FFFFFF" d="M54.5,315c-0.1,4.1,1.8,9,4.4,12.1c1.3,1.5,3.4-0.7,2.1-2.1c-2.1-2.5-3.6-6.6-3.6-9.9
					C57.5,313.1,54.5,313.1,54.5,315L54.5,315z"/>
			</g>
			<g id="XMLID_973_">
				<path id="XMLID_1030_" fill="#FFFFFF" d="M56.4,314.4c1.4-0.3,3.8-0.7,5.1,0.2c2,1.4,0,3.2-1.3,4.3c-1.1,0.9-0.1,2.4,1.1,2.6
					c2.7,0.3,5.5,1.4,3.6,4.4c-0.3,0.5-3.1,3.4-3.3,2.1c-0.2-1.9-3.2-1.9-3,0c0.7,5.4,6.2,3,8.4,0.1c1.2-1.6,2.1-3.8,1.3-5.8
					c-1.1-2.8-4.3-3.4-7-3.8c0.4,0.9,0.7,1.7,1.1,2.6c2.3-1.9,4.4-5,2.2-7.7c-2.1-2.6-6-2.5-8.9-1.8C53.7,312,54.5,314.9,56.4,314.4
					L56.4,314.4z"/>
			</g>
			<g id="XMLID_980_">
				<path id="XMLID_1037_" fill="#FFFFFF" d="M178.6,305.6c-4.1,1.3-7.5,5.2-6.8,9.8c0.9,5.2,6.2,6.1,10.6,5.1
					c1.9-0.4,1.1-3.3-0.8-2.9c-2.7,0.6-6.5,0.5-6.9-3c-0.3-2.9,2.1-5.3,4.7-6.1C181.2,307.9,180.4,305,178.6,305.6L178.6,305.6z"/>
			</g>
			<g id="XMLID_987_">
				<path id="XMLID_1044_" fill="#193769" d="M51.5,352c0,4.7,0,9.3,0,14c0,1.9,3,1.9,3,0c0-4.7,0-9.3,0-14
					C54.5,350.1,51.5,350.1,51.5,352L51.5,352z"/>
			</g>
			<g id="XMLID_994_">
				<path id="XMLID_1051_" fill="#193769" d="M51,353.5c5,0,10,0,15,0c1.9,0,1.9-3,0-3c-5,0-10,0-15,0
					C49.1,350.5,49.1,353.5,51,353.5L51,353.5z"/>
			</g>
			<g id="XMLID_1001_">
				<path id="XMLID_1058_" fill="#193769" d="M64.5,351c0,5.4-1.4,12.7,1.2,17.8c0.9,1.7,3.5,0.2,2.6-1.5c-1.1-2.2-0.9-5.3-0.9-7.7
					c0-2.9,0.1-5.7,0.1-8.6C67.5,349.1,64.5,349.1,64.5,351L64.5,351z"/>
			</g>
			<g id="XMLID_1008_">
				<path id="XMLID_1065_" fill="#193769" d="M73.4,355.4c0.9-2.5,2.3-3.4,5-2.8c-0.3-0.3-0.7-0.7-1-1c1,5.8-2.3,10.5-3.7,15.9
					c-0.4,1.3,1.1,2.2,2.2,1.7c3.9-1.9,7.7-3.7,12.1-3.7c1.9,0,1.9-3,0-3c-5-0.1-9.2,2-13.6,4.1c0.7,0.6,1.5,1.1,2.2,1.7
					c1.6-6.1,4.9-11,3.7-17.5c-0.1-0.5-0.6-0.9-1-1c-4.4-1-7.2,0.7-8.7,4.9C69.9,356.4,72.8,357.2,73.4,355.4L73.4,355.4z"/>
			</g>
			<g id="XMLID_1015_">
				<path id="XMLID_1072_" fill="#193769" d="M89,358.5c5.2-0.1,8.6,4.1,11.9,7.6c1.3,1.4,3.5-0.7,2.1-2.1
					c-3.9-4.1-7.9-8.5-14.1-8.4C87.1,355.5,87.1,358.5,89,358.5L89,358.5z"/>
			</g>
			<g id="XMLID_1022_">
				<path id="XMLID_1079_" fill="#193769" d="M100.2,352.7c-4.5,3.3-6.1,8.7-8.5,13.5c-0.9,1.7,1.7,3.2,2.6,1.5
					c2.1-4.2,3.5-9.5,7.5-12.5C103.3,354.2,101.8,351.6,100.2,352.7L100.2,352.7z"/>
			</g>
			<g id="XMLID_1029_">
				<path id="XMLID_1086_" fill="#193769" d="M116.4,356.4c3.2-0.7,6.3-1,9.6-0.9c1.9,0,1.9-3,0-3c-3.5-0.1-7,0.2-10.4,1.1
					C113.7,354,114.5,356.9,116.4,356.4L116.4,356.4z"/>
			</g>
			<g id="XMLID_1036_">
				<path id="XMLID_1093_" fill="#193769" d="M116,360.5c3.2,0.4,6.4,0.1,9.4-1.1c1.8-0.7,1-3.6-0.8-2.9c-2.8,1.1-5.6,1.3-8.6,0.9
					C114.1,357.3,114.1,360.3,116,360.5L116,360.5z"/>
			</g>
			<g id="XMLID_1043_">
				<path id="XMLID_1100_" fill="#E3525F" d="M144.1,339.1c1.2-1.3,3.1-2.6,5-2.1c2.8,0.7,0.5,3.4-0.6,4.7c-0.8,0.9-0.3,2.7,1.1,2.6
					c3.4-0.2,7.8,1.8,6.3,5.9c-0.6,1.5-1.9,2.3-3.5,2.3c-0.5,0-1-0.1-1.4-0.2c0.2,0-3.7-1-2.2,0.7c0.4,0.4,1.5-1,1.6-1.2
					c0.8-1.7-1.8-3.3-2.6-1.5c0.2-0.5-0.6,0.1-0.9,0.5c-0.4,0.5-0.5,1.2-0.4,1.8c0.3,1.9,2.6,2.4,4.2,2.7c2.9,0.5,5.9-0.4,7.4-3
					c1.3-2.2,1.3-5.2-0.1-7.4c-1.8-3-5.2-3.9-8.5-3.7c0.4,0.9,0.7,1.7,1.1,2.6c2.2-2.4,4.6-6.6,1-9c-3.1-2-7.3-0.3-9.6,2.2
					C140.7,338.4,142.8,340.5,144.1,339.1L144.1,339.1z"/>
			</g>
			<g id="XMLID_1050_">
				<path id="XMLID_1107_" fill="#E3525F" d="M164.6,335.6c-1.5,4.5-0.2,10.7,1.8,14.8c0.8,1.6,2,3.4,3.9,3.7c2.3,0.4,3.9-1.7,5-3.4
					c1-1.7-1.6-3.2-2.6-1.5c-0.6,1-1.3,2.4-2.5,1.6c-1.2-0.8-1.7-3.1-2.1-4.4c-0.9-3.1-1.6-7-0.6-10.1
					C168.1,334.6,165.2,333.8,164.6,335.6L164.6,335.6z"/>
			</g>
			<g id="XMLID_1057_">
				<path id="XMLID_1114_" fill="#E3525F" d="M160.8,344.3c2.5-1.1,5.6-1.1,8.2-0.8c1.9,0.2,1.9-2.8,0-3c-3.3-0.4-6.7-0.2-9.8,1.2
					C157.5,342.5,159,345.1,160.8,344.3L160.8,344.3z"/>
			</g>
			<g id="XMLID_1064_">
				<path id="XMLID_1121_" fill="#E3525F" d="M179.9,341.1c2.3,2.1,4.5,4.4,6.9,6.5c1.7,1.5,3.6,3.2,5.8,3.9
					c1.9,0.6,2.6-2.3,0.8-2.9c-2.1-0.6-3.9-2.6-5.5-4.1c-2-1.8-3.8-3.7-5.8-5.5C180.6,337.7,178.5,339.8,179.9,341.1L179.9,341.1z"
					/>
			</g>
			<g id="XMLID_1071_">
				<path id="XMLID_1127_" fill="#E3525F" d="M189.9,339.9c-3.3,3.9-6.7,7.8-9.2,12.3c-0.9,1.7,1.7,3.2,2.6,1.5
					c2.4-4.3,5.6-8,8.8-11.7C193.3,340.6,191.2,338.5,189.9,339.9L189.9,339.9z"/>
			</g>
			<g id="XMLID_1078_">
				<path id="XMLID_1128_" fill="#E3525F" d="M139,362.5c18.4,0,37.1-0.8,55.5,0.3c13.5,0.8,29,3.6,41.9-1.4c1.8-0.7,1-3.6-0.8-2.9
					c-13.1,5-28.9,2-42.5,1.2c-18-1-36.1-0.3-54.1-0.3C137.1,359.5,137.1,362.5,139,362.5L139,362.5z"/>
			</g>
			<g id="XMLID_1085_">
				<path id="XMLID_1135_" fill="#193769" d="M148.5,371c0.1,4.6,0,9.1-0.9,13.6c-0.4,1.9,2.5,2.7,2.9,0.8c1-4.8,1.2-9.5,1.1-14.4
					C151.4,369.1,148.4,369.1,148.5,371L148.5,371z"/>
			</g>
			<g id="XMLID_1092_">
				<path id="XMLID_1142_" fill="#193769" d="M158.7,370.8c3.1,4.1,5.4,8.8,9.2,12.3c1.4,1.3,3.5-0.8,2.1-2.1
					c-3.6-3.4-5.8-7.8-8.8-11.7C160.1,367.7,157.5,369.2,158.7,370.8L158.7,370.8z"/>
			</g>
			<g id="XMLID_1099_">
				<path id="XMLID_1149_" fill="#193769" d="M165.9,366.9c-4.6,4.1-7.4,9.9-9.4,15.7c-0.6,1.8,2.3,2.6,2.9,0.8
					c1.8-5.3,4.4-10.5,8.6-14.3C169.5,367.8,167.4,365.6,165.9,366.9L165.9,366.9z"/>
			</g>
			<g id="XMLID_1106_">
				<path id="XMLID_1148_" fill="#193769" d="M177,380.5c5.3,0,10.7,0,16,0c1.9,0,1.9-3,0-3c-5.3,0-10.7,0-16,0
					C175.1,377.5,175.1,380.5,177,380.5L177,380.5z"/>
			</g>
			<g id="XMLID_1113_">
				<path id="XMLID_1141_" fill="#193769" d="M196.7,370.8c1.7,3.2,4,6,6,9c1.1,1.6,3.7,0.1,2.6-1.5c-2-3-4.3-5.8-6-9
					C198.4,367.5,195.8,369,196.7,370.8L196.7,370.8z"/>
			</g>
			<g id="XMLID_1120_">
				<path id="XMLID_1134_" fill="#193769" d="M208.6,370.6c-7.7,2.1-9.5,11.6-12.9,17.7c-0.9,1.7,1.7,3.2,2.6,1.5
					c2.8-5.1,4.7-14.5,11.1-16.3C211.3,372.9,210.5,370,208.6,370.6L208.6,370.6z"/>
			</g>
		</g>
		<g id="XMLID_167_">
			<g id="XMLID_165_">
				<path id="XMLID_518_" opacity="0.3" fill="#010E2E" d="M683.2,436.6c-4-17.8-13.9-33.8-22.4-50.1c-7.3-13.9-13.6-28.2-19.1-42.8
					c-3.6-9.7-6.9-19.6-12.2-28.6c-5.3-9-13.2-15.6-22.9-20c0,0,0,0,0,0c-4-2.2-8.4-3.8-12.8-5.2c-2.5-0.8-5.1-1.6-7.7-2.3l0,0
					c0,0,0,0,0,0c-1-0.3-2-0.6-3-0.8c-0.3-0.1-0.5-0.1-0.8-0.2c-1-0.3-1.9-0.5-2.9-0.8c-0.3-0.1-0.6-0.2-0.9-0.2
					c-1.1-0.3-2.2-0.6-3.3-0.8c-0.2-3.2-0.4-8.5-0.2-13.1c0-0.4,0-0.7,0.1-1.1c0-0.1,0-0.2,0-0.2c0-0.3,0-0.6,0.1-0.9
					c0-0.1,0-0.1,0-0.2c0-0.1,0-0.2,0-0.3c0.3-0.1,0.6-0.2,0.9-0.3h27.4h11.6h36.2c-0.6-4.8-0.5-8.7-3.5-12.6
					c-3.3-4.2-8.2-7.8-9.1-13c-1.1-5.8,3-11,4.9-16.4c2.4-7,1-15.3-3.6-21.4c-4.2-5.5-10.8-9.3-13.9-15.5
					c-2.3-4.7-2.3-10.1-2.8-15.3c-2.3-23.8-20-42.9-42.4-51.6c-21.9-8.5-51.5-8.8-67.2,9.8c2.2-5.7,6.6-10.6,12.1-13.4
					c-13.8,5.5-22.1,20.6-20,35c-6.3-2.1-13.6-1-18.6,3c3.8-0.2,7.7,1.1,10.7,3.5c-5.9,0.5-10.7,4.9-12.8,10.2
					c-2.1,5.3-1.8,11.3-0.5,16.9c1.1,5,2.9,10,1.9,14.9c-1.6,8-10.4,14.3-8.5,22.4c1.1,4.7,5.6,8.1,7.3,12.7
					c3.3,9.2-3.2,23.3,3,30.9h56h3.3c1.4,0.5,2.8,0.9,4.2,1.2c0.1,0.3,0.2,0.6,0.2,0.9c0.2,0.8,0.3,1.5,0.5,2.3
					c0.1,0.5,0.2,1,0.2,1.6c0,0.3,0.1,0.6,0.1,0.9c0.1,0.6,0.1,1.2,0.2,1.8c0,0.1,0,0.1,0,0.2c0.1,1.4,0.1,2.8,0.1,4.2l0,0
					c0,1.2-0.1,2.5-0.3,3.7c-0.4,0.3-0.8,0.5-1.2,0.8c-0.3,0.2-0.6,0.4-1,0.6c-0.5,0.3-0.9,0.6-1.4,0.9c-0.3,0.2-0.7,0.4-1,0.6
					c-0.5,0.3-0.9,0.5-1.4,0.8c-0.3,0.2-0.7,0.4-1,0.5c-0.5,0.3-1,0.5-1.5,0.8c-0.3,0.2-0.7,0.3-1,0.5c-0.5,0.3-1,0.5-1.6,0.8
					c-0.3,0.1-0.6,0.3-0.9,0.4c-0.6,0.3-1.2,0.6-1.8,0.9v0c-6.5,3.1-13.2,6.1-18.9,10.4c-15.7,11.8-22.6,31.3-29.3,49.6
					c-6.7,18.3-14.9,37.6-31.9,47.6c-18.7-15.6-38.1-30.4-53.8-49c-1.1,0.9-2.3,1.9-3.5,2.8c-1.8-2.2-3.7-4.4-5.7-6.6
					c-1.5,1.3-3.1,2.7-4.7,4c-3-4-4.9-8.9-5.2-13.8c-0.1-2,0-4.1-0.4-6.1c-0.5-2.9-2-5.6-3.5-8.2c-0.7-1.2-1.3-2.4-2.4-3.3
					c-1-0.9-2.2-1.4-3.5-1.9c-1.3-0.5-2.6-1.1-3.9-1.6c-0.2-0.5-0.5-1-0.8-1.7c-2.7-5-5.4-10.1-7.6-15.3c-2.1-4.5-4.1-9-5-13.8
					c-0.3-1.6-1.2-3.7-2.8-3.4c-0.7,0.1-1.1,0.7-1.5,1.3c-2.5,4.4-0.6,9.9,1.3,14.7c1.8,4.5,3.6,9,5.4,13.6c-0.6-0.3-1.3-0.5-2-0.3
					c-1,0.3-1.3,1.2-1.3,2.3c-2.4,0-5,1.9-5.6,3.9c-0.4,1.2-0.3,2.5,0.1,3.7c0,0,0,0,0,0c-2.7,0.7-1.8,6.4-1.1,8.1
					c0.3,0.6,0.6,1.2,0.9,1.7c-1,1.1-1.2,3.5-0.7,5.4c0.5,2.2,2.1,4.1,3.8,5.7c0.1,0.1,0.3,0.3,0.4,0.4c2.1,5,7,9.1,12.4,10.7
					c1.8,0.5,3.7,0.8,5.6,0.9c0.2,0.3,0.4,0.7,0.6,1c1.2,1.8,2.4,3.7,3.6,5.5c-1.7,1.1-3.5,2.2-5.3,3.1c0.7,2.1,1.6,4.1,2.8,6
					c-0.7,0.3-1.5,0.7-2.2,1c12,28,31.1,55.6,59.1,68.9c5.1,2.4,10.5,4.3,16,4.5c14.3,0.6,26.1-9.9,34.9-20.5
					c10.4-12.5,19.3-26.3,26.3-40.9c-5.3,50.5-11.3,99.4-16.6,149.9c5.9,4.3,12.1,8.1,18.4,11.4c0.3,2,0.7,4,1,6
					c0.2,1.1,0.4,2.1,0.6,3.2c3.7,21.1,7.6,42.1,11.8,63.1l143.3,3.9c0.8-26.5-1.5-53-6.2-79.3l0,0c0,0,0,0,0,0
					c-0.1-0.4-0.1-0.8-0.2-1.2c4-1.5,7.8-2.5,11.8-4c-3.4-14.7-7.5-29.7-11.8-44.9c3-1.4,5.8-3.1,8.3-5.2
					C684.2,474.8,687.2,454.4,683.2,436.6z"/>
				<g id="XMLID_45_">
					<path id="XMLID_44_" fill="#204D86" d="M525.3,616.9c-5.3-32.5-10-65.2-14-97.9c-2.4-19.3,6.2-39.2,20.3-52.5
						c8.4-7.9,19.3-13,30.7-14.3c31.7-3.7,59.5,20.6,90.6,27.9c11.8,46,18.6,93.4,15.6,140.8L525.3,616.9z"/>
					<path id="XMLID_225_" fill="#051D43" d="M652.9,480.2c-31.1-7.4-58.8-31.6-90.6-27.9c-11.4,1.3-22.4,6.4-30.7,14.3
						c-14.1,13.4-22.7,33.2-20.3,52.5c2.6,21.2,5.5,42.3,8.6,63.4c50.4-5.4,99.7-20.4,144.9-42.9C662,519.6,657.9,499.8,652.9,480.2
						z"/>
					<path id="XMLID_39_" fill="#F4C39F" d="M374.8,291.3c-1.9-4.6-3.8-9.2-4.6-14.2c-0.3-1.6-1.1-3.8-2.7-3.5
						c-0.7,0.1-1.2,0.7-1.5,1.3c-2.6,4.5-0.9,10.2,0.8,15.1c1.9,5.2,3.7,10.4,5.6,15.6c0.3,0.9,0.7,1.9,1.4,2.6
						c0.5,0.5,1.2,0.8,1.9,1.2c4.9,2.3,9.7,4.7,6.2-2.5C379.5,301.9,376.9,296.6,374.8,291.3z"/>
					<path id="XMLID_168_" fill="#AF694E" d="M368.4,294.4c1.3,3.8,2.7,7.5,4,11.3c0.3,0.9,0.7,1.9,1.4,2.6c0.5,0.5,1.2,0.8,1.9,1.2
						c4.9,2.3,9.7,4.7,6.2-2.5c0,0,0,0,0-0.1C376.4,304.4,371.9,299.8,368.4,294.4z"/>
					<path id="XMLID_43_" fill="#F4C39F" d="M384.3,347.8c-2.3,0.1-4.7-0.3-6.9-1c-6.9-2.1-12.6-8.3-13-15.5
						c-0.3-6.5,0.3-12.4,3-18.3c0.9-1.9,2.2-4,4.3-4.4c2.4-0.4,4.5,1.6,6.1,3.4c3.5,4,7.2,8.2,8.3,13.5c0.8,3.7,0.2,7.5-0.5,11.2
						C385.1,339.8,384.9,344.7,384.3,347.8z"/>
					<path id="XMLID_40_" fill="#F4C39F" d="M362.9,310.1c-1,3,0.7,6.2,2.5,8.8c2.1,2.8,4.6,5.4,7.7,7c0.8,0.4,1.9,0.8,2.7,0.3
						c0.6-0.3,1-0.8,1.1-1.4c0.6-1.9-0.7-3.9-2.1-5.4c-1.3-1.5-2.9-3.1-3-5.2c-0.1-2.7,1.8-6-1.5-7.7
						C367.7,305.1,363.7,307.5,362.9,310.1z"/>
					<path id="XMLID_41_" fill="#F4C39F" d="M361.4,322.3c1,2.5,2.9,4.6,5,6.3c1.1,0.9,2.3,1.8,3.7,2.2s3,0.2,4.1-0.8
						c1.5-1.5,1.2-4.1,0-5.9c-1.2-1.8-3.1-2.9-4.8-4.2c-1.5-1.2-4.7-6.5-6.7-6C360,314.7,360.7,320.6,361.4,322.3z"/>
					<path id="XMLID_42_" fill="#F4C39F" d="M361.4,329.6c0.4,2.3,2,4.2,3.6,5.8c1.1,1.2,2.4,2.4,4,2.8s3.6-0.1,4.3-1.6
						c0.8-1.7-0.3-3.6-1.3-5.1c-1.5-2.2-4-6.9-6.6-8C361.7,322.2,360.8,326.4,361.4,329.6z"/>
					<path id="XMLID_38_" fill="#F4C39F" d="M402.4,347.3c-4.2-4.6-6.7-10.7-6.8-16.9c-0.1-2.1,0.1-4.2-0.2-6.2
						c-0.4-3-1.8-5.8-3.2-8.4c-0.6-1.2-1.3-2.5-2.3-3.4c-1-0.9-2.2-1.4-3.4-1.9c-4.9-2.1-9.7-4.2-14.6-6.2c-0.7-0.3-1.4-0.6-2.1-0.4
						c-1.8,0.4-1.6,3.1-0.7,4.8c2.1,4,5.4,7.4,9.3,9.7c1,2.6-0.7,5.9,0.1,8.6c0.8,2.6,3.6,4,4.7,6.5c-2.8,1-3.4,4.3-3.1,7.3
						c0.3,3,1.8,5.6,3.4,8.2c1.7,2.9,3.5,5.8,5.2,8.7C393,353.9,397.6,350,402.4,347.3z"/>
					<path id="XMLID_35_" fill="#C44147" d="M386.3,367c-2.1-2.8-3.7-6-4.7-9.4c8.4-4.7,16.3-10.9,23.5-17.2
						c3.4,4.2,6.7,8.2,9.8,12.6L386.3,367z"/>
					<path id="XMLID_27_" fill="#23ADD2" d="M676.6,534.2c-4,1.5-7.9,2.6-12,4.1c-2.5-17.3-6.6-34.5-12.4-51
						c0.9,17.5,2.4,36,4.1,53.4c-3.6,2.5-7.6,4.2-11.7,5.8c-21.6,8-44.8,12.1-67.8,10c-6.4-25-13.3-48.5-19.7-73.5
						c-1.5,24.2-5.7,47.6-7.2,71.8c-19.9-2.8-37.6-11.7-53.6-23.8c7-51.8,14.6-102.1,21.6-153.9c-7.5,15-16.8,29.2-27.6,42
						c-9.2,10.9-21.3,21.6-35.6,21.1c-5.5-0.2-10.9-2.2-15.9-4.6c-27.6-13.6-45.8-42-56.9-70.7c11.2-4.9,22.7-12.7,32.2-20.5
						c15.1,19,34,34.2,52.2,50.3c17.4-10.2,26.2-30.1,33.5-48.8c7.3-18.8,14.8-38.8,30.9-50.9c12-9,27.6-12.6,38.6-22.6
						c11.7,2.1,24.1,5.2,35.4,9c6.5,2.2,13.1,4.7,18.2,9.3c11.4,10.5,11.6,27.9,12.9,43.3c1,12,3.2,23.9,5.4,35.7
						c2.3,12.7,4.7,25.4,7,38.2C655.7,449,668.5,493,676.6,534.2z"/>
					<path id="XMLID_215_" fill="#0B8CB6" d="M561.6,406.2c-7.6-12.6-13.9-26-18.7-39.9c-2.1-6.2-4-12.7-4.1-19.2
						c0-6.6,1.9-13.4,6.6-18.1c-11.5-3.1-18.1-18-12.6-28.6c-2.5,4.6-4.4,10.1-5.3,15.3c-0.9,5.2,0.1,10.9,3.8,14.6
						c1.2,1.2,2.6,2.1,3.7,3.4c3.2,4,1.9,9.7,1.3,14.8C533.8,369.6,549.8,388.6,561.6,406.2z"/>
					<path id="XMLID_217_" fill="#0B8CB6" d="M591.6,392.1c3-11.4,9.1-21.7,13.6-32.6s7.2-23.4,3.1-34.4c-0.5-1.4-1.1-2.8-0.8-4.2
						c0.3-1.2,1.2-2.2,1.9-3.2c6-7.8,3.2-18.9,0.1-28.3c3.3,4.5,6.4,10.2,8.2,15.5s1.9,11.4-1.1,16.1c-0.9,1.4-2,2.6-2.5,4.1
						c-0.8,2.3-0.1,4.8,0.4,7.2c1.7,8.7,0.8,17.9-2.6,26C606.5,371.1,595.5,378.9,591.6,392.1z"/>
					<path id="XMLID_37_" fill="#0B8CB6" d="M634.7,433.2c3.4-32.8,7-68.4-4.9-99.2c-1.2,9.4-2.9,18.7-5,27.9
						c-0.7,2.9-1.4,5.9-3.1,8.3c-1.9,2.7-4.9,4.5-7.7,6.2c-7.8,4.6-15.5,9.2-23.3,13.7c-1,0.6-1.9,1.2-2.6,2
						c-1.4,1.7-1.4,4.2-0.8,6.4c1.8,6.2,7.6,10.3,13,13.8C608.8,417.9,626.1,427.5,634.7,433.2z"/>
					<g id="XMLID_213_">
						<path id="XMLID_214_" fill="#C44147" d="M578.3,378.9c6.3-18.6,12.7-37.3,16.3-56.6c2.7-14.3,3.9-29,2.4-43.5
							c-9.1-2.7-18.7-5-27.8-6.6c-5.6,5.2-12.5,8.6-19.4,11.9c1.9,39.2,8.4,78.2,19.6,115.9C573.2,393.5,575.9,386,578.3,378.9z"/>
					</g>
					<path id="XMLID_216_" fill="#FFFEFD" d="M572.6,295.4c0,0,12.9,8.7,21.5,29.7c0.2-1,0.4-1.9,0.6-2.9c2.7-14.3,3.9-29,2.4-43.5
						c-9.1-2.7-18.7-5-27.8-6.6c-5.6,5.2-12.5,8.6-19.4,11.9c0.5,11.2,1.5,22.4,2.8,33.6C556.1,310.6,562.3,300.2,572.6,295.4z"/>
					<g id="XMLID_33_">
						<path id="XMLID_36_" fill="#962C33" d="M572.6,295.4c-10.3,4.8-16.6,15.2-20,22.3c0.3,2.2,0.6,4.4,0.8,6.6
							C557.3,315,564.6,299.7,572.6,295.4z"/>
						<path id="XMLID_161_" fill="#962C33" d="M572.6,295.4c0,0,12.9,20.6,18.8,41.4c1-3.9,1.9-7.7,2.7-11.6
							C585.6,304.1,572.6,295.4,572.6,295.4z"/>
					</g>
					<path id="XMLID_7_" fill="#124272" d="M571.9,259.3h-72.1c-6-7.8,1-22.3-2-31.7c-1.5-4.7-5.9-8.2-6.9-13
						c-1.6-8.3,7.4-14.7,9.3-23c1.2-5-0.5-10.2-1.4-15.3c-1.1-5.8-1.2-11.9,1.1-17.4s7.2-10,13.1-10.5c-2.9-2.4-6.7-3.7-10.5-3.6
						c5.8-4.7,14.4-5.6,21-2.1c13,6.8,21.2,20.9,25.4,34.9s5.4,28.8,8.9,43.1C560.7,232.7,565.6,248.5,571.9,259.3z"/>
					<path id="XMLID_8_" fill="#E0A286" d="M528.9,228.4c-2.8,2.6-7.7,2.3-10.2-0.6c-1.9-2.3-2.2-5.5-3.7-8c-1-1.8-2.6-3.3-4-4.9
						c-4.5-5.4-6.5-13-5.1-19.9c0.4-1.9,1.2-4,3-4.5c0.8-0.3,1.7-0.1,2.6,0.1c3.6,0.8,6.9,2.5,9.7,4.9
						C524.6,206.1,524.4,218,528.9,228.4z"/>
					<ellipse id="XMLID_10_" fill="#D7E4ED" cx="523" cy="231.4" rx="5.9" ry="6.1"/>
					<path id="XMLID_9_" fill="#AF694E" d="M515.2,198.6c-0.6-0.4-1.2-0.8-1.9-0.7c-0.9,0.1-1.5,1.1-1.7,2.1
						c-0.2,0.9-0.2,1.9-0.8,2.7c0.2-1.8,2.5-2.7,4.2-2.1c1.7,0.6,2.8,2.2,3.7,3.8c-1.7,1.6-2.6,3.9-2.5,6.2c0.1,2.3,1.2,4.6,3,6
						c2.2,1.8,5.1,2.3,7.8,2.8c-1.8-0.3-2.2-10.6-3-12.2C522.3,203.9,518.2,200.8,515.2,198.6z"/>
					<polygon id="XMLID_17_" fill="#041E33" points="626.8,259.3 555.8,259.3 619.3,221.5 					"/>
					<path id="XMLID_26_" fill="#F4C39F" d="M561.7,255c2.8,8,3.4,16.7,1.5,25c2.5,4.3,8.4,14.9,9.5,15.4
						c5.1-5.2,9.8-10.6,13.7-16.7c-0.1-2.7-0.6-19.5,1.7-24.3L561.7,255z"/>
					<path id="XMLID_145_" fill="#E0A286" d="M561.7,255c2,5.7,2.8,11.7,2.5,17.7c8.1-2.1,15.8-5.2,22.3-10.3
						c0.3-3.4,0.7-6.4,1.5-8.1L561.7,255z"/>
					<path id="XMLID_4_" fill="#F4C39F" d="M522.7,215.5c0.5,1.8,1,3.5,1.5,5.3c4.3,13.9,12.7,25.6,24.9,33.6
						c16.6,10.8,37.2,9.5,52.6-3c11.2-9.1,18.2-22.5,21.3-36.5s2.6-28.6,0.6-42.9c-1.5-10.5-3.8-20.9-8.7-30.3
						c-3.6-6.8-8.7-13.2-15.7-16.5c-4.6-2.2-9.7-3-14.8-3.7c-10.3-1.5-20.8-3-31.2-1.7c-8.6,1.1-16.7,4.3-23.2,10.1
						c-7,6.2-7.9,15.2-9.4,24C517.3,174,517.6,195.6,522.7,215.5z"/>
					<path id="XMLID_6_" fill="#124272" d="M663,259.3h-47.9c-3.8-5.4-1.3-12.8-2.7-19.1c-1.3-6-5.8-10.8-7.6-16.6
						c-2-6.6-0.4-13.8-0.9-20.7c-0.9-10.4-7.2-20.1-16.4-25.1c-8.8-4.8-20.1-5.6-26.7-13.1c-3.9-4.4-5.5-10.5-8.8-15.4
						c-3.4-5-9-8.7-15-9.5c-6.1-0.7-11.4,1.9-15,6.8c-4.4-16.1,4.8-34.4,20.3-40.7c-5.6,3-10.1,7.9-12.5,13.8
						c16.3-19.1,45.9-18.7,67.5-10c22.2,8.9,39.2,28.5,40.7,52.9c0.3,5.3,0.1,10.8,2.3,15.7c2.9,6.3,9.4,10.2,13.4,15.9
						c4.4,6.3,5.6,14.8,2.9,22c-2.1,5.6-6.3,11-5.4,16.9c0.8,5.3,5.5,9,8.7,13.4C662.8,250.3,662.6,254.3,663,259.3z"/>
					<path id="XMLID_14_" fill="#041E33" d="M554.8,196.3c-1.4,3.7-4.9,6.2-8.6,7.7c-3.9,1.5-8.3,2.2-12.2,0.8
						c-3.9-1.4-7.1-5.3-6.7-9.5c0.2-2.6,2.2-4.4,4.6-5.4c4.9-2.1,10.7-3.1,15.5-0.9C550.4,190.5,552.5,193.7,554.8,196.3z"/>
					<path id="XMLID_11_" fill="#D7E4ED" d="M538.2,184.9c3.4-0.7,7,0.7,9.7,2.9c2.7,2.2,4.6,5.2,6.4,8.2c0.2,0.3,0.4,0.7,0.3,1.1
						c-0.1,0.3-0.3,0.5-0.5,0.7c-3,2.7-6.5,5-10.4,5.9c-3.9,0.9-8.4,0.1-11.3-2.6c-3-2.8-5.1-6.3-2.6-9.8
						C531.8,188.3,534.6,185.6,538.2,184.9z"/>
					<path id="XMLID_15_" fill="#D7E4ED" d="M603.7,192c-1.8-3.5-4-6.9-7.1-9.3s-7.2-3.8-11-3c-3.5,0.8-6.5,3.3-8.5,6.3
						c-2,3-3.3,6.4-4.5,9.8c4.4,4.7,10.7,7.4,17,6C594.9,200.7,600,196.2,603.7,192z"/>
					<path id="XMLID_18_" fill="#041E33" d="M605.3,191.4c-2.3-0.2-4.4,0.9-6.3,2.2s-3.4,3-5.3,4.3c-6.3,4.2-14.1,0.4-21.2-2.1
						c4.7,6.1,13.3,8.6,20.6,6C598.3,199.9,601.7,195.7,605.3,191.4z"/>
					<path id="XMLID_13_" fill="#041E33" d="M549.5,190c-2-2.1-4.9-3.4-7.8-3.6s-5.9,0.9-7.9,3c-1.5,1.5-2.5,3.4-3.8,5.1
						c-1.3,1.6-3.3,3-5.4,2.7c1.8-2.4,2.1-5.6,3.2-8.4c1.2-2.8,3.4-5.2,6-6.6c3.1-1.7,7-2,10.4-0.9s6.3,3.5,8,6.6
						c1.4,2.5,2.2,5.5,2.4,8.3C552.6,194.6,551.4,191.9,549.5,190z"/>
					<path id="XMLID_16_" fill="#041E33" d="M607.9,191.8c-2.1-2.9-4.2-5.7-6.3-8.6c-1.3-1.7-2.5-3.5-4.2-4.7
						c-2.7-2.1-6.3-2.8-9.7-2.6c-4.2,0.2-8.4,1.6-11.2,4.7c-3.5,3.9-3.6,10-4,15.2c1.9-4.7,4.1-9.8,8.1-13c2.1-1.7,4.6-2.8,7.3-3.2
						c1-0.1,2-0.2,3,0.1c1,0.2,1.9,0.8,2.7,1.4c2.6,2,4.4,4.7,6.6,7.1S604.7,191.6,607.9,191.8z"/>
					<path id="XMLID_19_" fill="#124272" d="M550.7,173.8c-3.6-0.4-7.1-1-10.6-1.8c-2.6-0.6-5.2-1.3-7.9-1.3
						c-3.5,0.1-6.9,1.5-9.4,3.9c3.9-1.7,8.3-2,12.3-0.7c1.5,0.5,2.8,1.1,4.3,1.5C543,176.3,547.5,175.8,550.7,173.8z"/>
					<path id="XMLID_20_" fill="#124272" d="M580.2,170.4c-3.6,1.4-7.4,2.4-11.2,3.2c2.1,1.7,5.3,1.4,7.9,0.7
						c4.2-1.2,8.2-3.2,11.8-5.8C586.1,168.7,582.6,169.5,580.2,170.4z"/>
					<path id="XMLID_21_" fill="#F2A0A0" d="M555.4,210.1c-1.6,3.2-5,5.6-3.5,8.8c1,2.3,3.6,3.4,6,4.1c1.8,0.5,3.8,0.7,5.6,0.4
						c1.9-0.4,3.6-1.5,4.5-3.2c0.6-1.3,0.7-2.7,0.6-4.1c0-7.2-0.7-14.3-2.1-21.3c-0.3-1.8-0.8-3.6-2.1-4.8c-4.4-4-5.3,3.1-5.8,5.7
						C557.7,200.2,557.6,206,555.4,210.1z"/>
					<path id="XMLID_25_" fill="#F92D8A" d="M553.1,233.9c0,0,3.9-1.9,9.9-2.5c6-0.6,19.2-2.4,19.2-2.4s2.9,16-9.6,20.5
						S555.1,243.2,553.1,233.9z"/>
					<path id="XMLID_22_" fill="#890943" d="M582.2,229c-2.2,1.3-4.5,2.3-6.9,3.1c-7.1,2.2-14.7,2-22.2,1.8c0.1,5.3,3.7,10.1,8.6,12
						s10.8,0.9,14.8-2.5C580.5,240,582.8,234.2,582.2,229z"/>
					<path id="XMLID_121_" fill="#B7256E" d="M562.1,246.1c4.8,1.7,10.5,0.6,14.4-2.7c2-1.7,3.6-4,4.6-6.5
						C574,238.2,566.9,240.9,562.1,246.1z"/>
					<path id="XMLID_143_" fill="#D7E4ED" d="M582,233.8c0.3-1.6,0.4-3.2,0.2-4.8c-2.2,1.3-4.5,2.3-6.9,3.1
						c-7.1,2.2-14.7,2-22.2,1.8c0,0.8,0.1,1.6,0.3,2.4C562.8,238.4,572.8,237.4,582,233.8z"/>
					
						<rect id="XMLID_34_" x="557.3" y="385.5" transform="matrix(0.9956 -9.368340e-002 9.368340e-002 0.9956 -39.0624 57.9399)" fill="#9E2931" width="80.5" height="119"/>
					
						<rect id="XMLID_31_" x="552.6" y="390.3" transform="matrix(0.988 -0.1544 0.1544 0.988 -62.336 96.9174)" fill="#FA7A21" width="80.5" height="119"/>
					
						<rect id="XMLID_32_" x="564.6" y="406.7" transform="matrix(0.988 -0.1544 0.1544 0.988 -57.5286 95.7791)" fill="#FFFFFF" width="46.7" height="23.1"/>
					<path id="XMLID_83_" fill="#041E33" d="M545,194.2c-1.6,0-2.8-1.3-2.8-2.8s1.3-2.8,2.8-2.8c0.1,0,0.1,0,0.2,0
						c-0.8-0.8-1.9-1.3-3-1.3c-2.8,0-5.1,3.1-5.1,6.9c0,3.8,2.3,6.9,5.1,6.9s5.1-3.1,5.1-6.9c0-0.4,0-0.7-0.1-1.1
						C546.7,193.8,545.9,194.2,545,194.2z"/>
					<path id="XMLID_112_" fill="#041E33" d="M590.2,190.1c-1.6,0-2.8-1.3-2.8-2.8c0-1.3,0.9-2.4,2.1-2.7c-0.8-0.6-1.7-1-2.6-1
						c-2.8,0-5.1,3.1-5.1,6.9c0,3.8,2.3,6.9,5.1,6.9c2.8,0,5.1-3.1,5.1-6.9c0-0.3,0-0.7-0.1-1C591.4,189.9,590.8,190.1,590.2,190.1z
						"/>
					<g id="XMLID_84_">
						<g id="XMLID_346_">
							<g id="XMLID_350_">
								<g id="XMLID_357_">
									<g id="XMLID_358_">
										<g id="XMLID_359_">
											<path id="XMLID_360_" fill="#FFFFFF" d="M536.7,216.8c-18,0-21.1-15.4-21.1-15.6l-0.2-1.2h42.7l-0.2,1.2
												C557.8,201.3,554.6,216.8,536.7,216.8z M517.9,202c1.1,3.4,5.2,12.8,18.8,12.8c13.6,0,17.8-9.4,18.9-12.8H517.9z"/>
										</g>
									</g>
								</g>
								<g id="XMLID_351_">
									<g id="XMLID_352_">
										<g id="XMLID_353_">
											<path id="XMLID_354_" fill="#FFFFFF" d="M588.1,216.8c-18,0-21.1-15.4-21.1-15.6l-0.2-1.2h42.7l-0.2,1.2
												C609.2,201.3,606,216.8,588.1,216.8z M569.2,202c1,3.4,5.2,12.8,18.8,12.8c13.6,0,17.8-9.4,18.9-12.8H569.2z"/>
										</g>
									</g>
								</g>
							</g>
							<g id="XMLID_347_">
								<g id="XMLID_348_">
									<path id="XMLID_349_" fill="#FFFFFF" d="M555.4,210.1c-0.5,0-1-0.4-1-0.9c-0.1-1.5,0.1-3,0.4-4.4c0.3-2.1,0.8-4.3,2.5-5.6
										c1.3-1,3-1.2,4.4-1.2c1.1,0,2.3,0,3.4,0.5c1.6,0.7,2.5,2.1,3,3.1c0.6,1.2,0.8,2.5,1.1,3.8l0.7,3.4c0.1,0.5-0.2,1.1-0.8,1.2
										c-0.5,0.1-1.1-0.2-1.2-0.8l-0.7-3.4c-0.2-1.1-0.5-2.3-1-3.3c-0.5-1-1.2-1.8-2-2.2c-0.8-0.4-1.7-0.4-2.6-0.4
										c-1,0-2.3,0.1-3.2,0.8c-1.1,0.9-1.5,2.5-1.8,4.3c-0.2,1.3-0.4,2.7-0.4,4C556.4,209.6,556,210.1,555.4,210.1
										C555.4,210.1,555.4,210.1,555.4,210.1z"/>
								</g>
							</g>
						</g>
					</g>
					<g id="XMLID_219_">
						<path id="XMLID_222_" fill="#0B8CB6" d="M495.9,394.4c-4.9,8.2-9.9,16.6-16.8,23.2c-7,6.6-16.2,11.3-25.8,10.7
							c-16.3-1.1-27.5-16.4-36.2-30.2c-8.2-12.9-16.3-25.8-24.5-38.6c-3.5,2-7.1,3.9-10.6,5.4c11,28.7,29.2,57.1,56.9,70.7
							c5,2.5,10.3,4.4,15.9,4.6c14.3,0.6,26.4-10.1,35.6-21.1c10.8-12.8,20.1-27,27.6-42l9.9-36.4
							C517.2,358.7,506.5,376.5,495.9,394.4z"/>
					</g>
					<path id="XMLID_212_" fill="#0B8CB6" d="M490,394.2c0.5-0.5,1.1-1,1.1-1.7c0.2-1.2-1-2.1-2.2-2.2s-2.3,0.5-3.3,0.9
						c-6.3,2.8-12.3,1.7-18.6,3C472.9,400.2,484,399.4,490,394.2z"/>
					<path id="XMLID_224_" fill="#AF694E" d="M376.5,322.3c-1.1,1.4-3.2,1.5-4.8,0.8s-2.8-2.1-3.9-3.5c-1.5-1.8-2.9-3.5-4.4-5.3
						c1.7,1.3,3.6,2.4,5.3,3.9c1.6,1.4,3.5,3,5.7,2.9c1.5-0.1,3-1.1,3.6-2.5C377.9,320,377.4,321.1,376.5,322.3z"/>
					<path id="XMLID_248_" fill="#AF694E" d="M374.1,326.6c0.5,1.1,0,2.5-1,3.2s-2.3,0.7-3.5,0.4s-2.1-1.1-3.1-1.9
						c-1.5-1.3-2.9-2.7-4-4.3c1.7,1.1,3.2,2,4.8,3.3c0.7,0.6,1.4,1.2,2.3,1.5C371.4,329.2,374.2,328.5,374.1,326.6z"/>
					<path id="XMLID_258_" fill="#AF694E" d="M373,331.8c0.5,1,0.9,2.1,0.9,3.2s-0.6,2.3-1.6,2.8c-0.9,0.5-2,0.4-3,0s-1.8-1-2.6-1.7
						c1.3,0.4,2.2,0.1,3.6,0.1c0.4,0,0.8,0,1.2-0.1c0.7-0.3,1.2-1,1.4-1.8S373.1,332.6,373,331.8z"/>
					<path id="XMLID_160_" fill="#AF694E" d="M383.2,346.3c-2.3-3.3-2.8-7.7-1.5-11.4c0.3-0.8,0.7-1.7,0.5-2.5
						c-0.1-0.7-0.6-1.3-1.1-2c-2-2.7-2.9-6.1-2.6-9.4c0.1-0.8,0.2-1.7,0-2.5c-0.5-1.8-2.4-2.7-3.9-3.8c-2.9-2-5-5.2-5.6-8.7
						c-1.4,3.8,0.2,7.9,3.3,10.3c1.7,1.4,4.1,2.3,4.8,4.4c0.4,1.2,0.2,2.5,0.2,3.7c0.1,3,1.8,5.6,2.2,8.6c0.2,1.8-0.1,3.6,0,5.3
						C379.6,341.2,381.1,344.3,383.2,346.3z"/>
					<path id="XMLID_30_" fill="#F4C39F" d="M589.1,444.5c-2.7-0.5-5.3-1.8-7.2-3.8c-1-1-1.8-2.2-2.6-3.3c-3-4.3-5.9-8.5-8.9-12.8
						c-2.5-3.5-4.9-7.1-6.4-11.2c-0.2-0.6-0.5-1.2-1-1.5c-1-0.5-2,0.7-2.4,1.7c-1.6,4.2,0.2,8.9,2,13c1.9,4.1,3.9,8.6,2.8,13
						c-5.3,3-12.4,4.4-18.2,2.5c-1.3-0.4-2.9-0.9-3.9,0c-0.4,0.4-0.6,1-0.7,1.5c-0.6,3.5,3,6.5,3.4,10c0.2,1.5-0.2,3.1,0.1,4.6
						c0.5,3,3.3,5,4.3,7.9c0.7,2,0.5,4.3,1.5,6.2c1.4,2.7,4.6,3.7,7.6,4.3c11.1,2.2,22.7,2.1,33.8-0.5L589.1,444.5z"/>
					<path id="XMLID_29_" fill="#C44147" d="M600,438.5c-4.7-0.2-9.3-0.3-14-0.5c0.4,14.3,0.3,29-0.3,43.3c4.5,1,9.3,2.3,13.9,2.7
						L600,438.5z"/>
					<path id="XMLID_28_" fill="#23ADD2" d="M617.3,286.5c9.5,4.4,17.2,11.3,22.2,20.5c5,9.2,8,19.4,11.3,29.3
						c5,15,10.9,29.7,17.7,43.9c8,16.7,17.3,33.2,20.8,51.5c3.5,18.2-0.2,39.2-14.5,51c-10.6,8.8-25.1,11.2-38.9,10.8
						c-13.7-0.4-27.1-3.3-40.5-6.1c0,0,0.9-35.2,0.7-51.1c12.9,1.5,26.1,0.2,38.7-3.1C640.5,385.2,634.6,331.6,617.3,286.5z"/>
					<path id="XMLID_177_" fill="#0B8CB6" d="M634.7,433.2c3-1.7,4-2.7,6.9-4.4c1.3-0.7,2.6-1.5,4-1.9c1.4-0.4,2.9-0.4,4.4-0.7
						c4.7-1,8.2-5.3,9.6-9.9c1.5-4.6,1.3-9.5,1-14.3c-0.1-1.2-0.1-2.4-0.8-3.3c-0.6-1-2.1-1.5-3-0.8c-0.2,7.1-0.6,15-5.7,20.1
						c-2.5,2.6-5.9,4.1-9,5.9C638.4,426.2,637.6,429.8,634.7,433.2z"/>
				</g>
			</g>
			<g id="XMLID_77_">
				<rect id="XMLID_81_" x="760.6" y="-12.9" fill="#FF7E8E" width="124.5" height="256.7"/>
				<rect id="XMLID_48_" x="763.1" y="-16.9" fill="#1475A8" width="124.5" height="256.7"/>
				<rect id="XMLID_49_" x="782.6" y="-16.9" fill="#FFFDFF" width="105" height="240.5"/>
				<circle id="XMLID_50_" fill="#1475A8" cx="804.5" cy="33.5" r="6.5"/>
				<circle id="XMLID_52_" fill="#1475A8" cx="804.5" cy="72" r="6.5"/>
				<circle id="XMLID_53_" fill="#1475A8" cx="804.5" cy="110.5" r="6.5"/>
				<circle id="XMLID_54_" fill="#1475A8" cx="804.5" cy="149" r="6.5"/>
				<rect id="XMLID_51_" x="817" y="30.5" fill="#FC7F22" width="34.5" height="6"/>
				<rect id="XMLID_56_" x="817" y="69" fill="#FC7F22" width="34.5" height="6"/>
				<rect id="XMLID_57_" x="817" y="107.5" fill="#FC7F22" width="34.5" height="6"/>
				<rect id="XMLID_58_" x="817" y="146" fill="#FC7F22" width="34.5" height="6"/>
			</g>
			<g id="XMLID_76_">
				<rect id="XMLID_78_" x="779.9" y="294.7" fill="#FF7E8E" width="73.4" height="125.6"/>
				<rect id="XMLID_55_" x="782.6" y="292.7" fill="#1475A8" width="73.4" height="125.6"/>
				<rect id="XMLID_59_" x="793.3" y="303.7" fill="#FFFDFF" width="75.3" height="103.7"/>
			</g>
			<g id="XMLID_163_">
				<rect id="XMLID_63_" x="-18.4" y="489.3" fill="#E04F5C" width="393.8" height="29.7"/>
				<rect id="XMLID_70_" x="-18.4" y="519" fill="#9A252D" width="354.4" height="102"/>
				<rect id="XMLID_71_" x="-6" y="536.4" fill="#B7293A" width="313" height="77.1"/>
				<rect id="XMLID_72_" x="-6" y="551" fill="#E93A35" width="291" height="62.5"/>
				<polygon id="XMLID_73_" fill="#7F2029" points="307,536.4 285,551 285,613.5 307,613.5 				"/>
			</g>
			<g id="XMLID_166_">
				<path id="XMLID_318_" fill="#FF7E8E" d="M814.2,502.2c-6.3,3.4-10.8,10.1-11.5,17.3c-0.5,4.8,0.7,10.1-1.6,14.4
					c-1.7,3.2-4.9,5.2-7.3,8c-3,3.6-4.3,8.4-3.6,13c0.7,4.4,3.1,8.5,3,12.9c-0.1,5.5-4,10-7,14.5c-2.7,4-4.9,8.4-6.5,13.1
					c1.6-12.5,0.1-25.4-4.6-37.1c-2.6-6.5-6.3-13.2-5-20.1c1.1-5.6,5.2-10.1,7.2-15.4c2.1-5.6,1.7-12-1.1-17.3
					c-2.2-4.1-5.7-7.5-7-12c-1.7-6,1.1-12.3,1.8-18.5c1.1-9.2-2.7-18.8-9.8-24.7c-7.1,6-10.9,15.5-9.8,24.7
					c0.7,6.2,3.5,12.5,1.8,18.5c-1.3,4.5-4.8,7.9-7,12c-2.8,5.3-3.2,11.7-1.1,17.3c2,5.3,6.2,9.8,7.2,15.4c1.3,6.9-2.3,13.6-5,20.1
					c-7.4,18.3-6.8,39.5,1.1,57.5c-1-1.9-2.2-3.7-3.5-5.5c-2.5-3.2-5.6-6.4-5.9-10.5c-0.3-3.3,1.3-6.5,1.6-9.8
					c0.3-3.4-0.9-7-3.3-9.5c-1.9-2-4.4-3.3-5.8-5.6c-1.9-3.1-1.3-7-1.9-10.6c-0.8-5.3-4.5-10.1-9.3-12.3c-3,4.4-3.6,10.4-1.6,15.4
					c1.4,3.4,3.9,6.4,3.9,10.1c0,2.7-1.5,5.2-2,7.8c-0.7,3.4,0,7.1,2.1,9.9c2,2.7,5,4.5,6.5,7.5c1.8,3.7,0.8,8,0.4,12
					c-1.5,13.7,4.1,28,14.5,37.1l3.9-1.1l3.9-1.1c3.1-9.6,2.5-20.3-1.3-29.6c1.1,2.2,2.4,4.4,3.8,6.5h7h7c3.7-5.5,6.5-11.6,8.5-17.9
					c-0.9,9.1,0.2,18.4,3.6,26.9l5.3,1.1l5.3,1.1c13.2-13,19.5-32.6,16.2-50.8c-1-5.4-2.6-11.1-0.5-16.1c1.7-4.1,5.6-6.8,8-10.6
					c2.5-3.9,3.2-8.9,2-13.4c-1-3.5-3.1-6.7-3.4-10.3c-0.3-4.9,2.8-9.2,4.4-13.8C820,515.8,818.6,507.9,814.2,502.2z"/>
				<g id="XMLID_75_">
					<g id="XMLID_60_">
						<path id="XMLID_61_" fill="#0A6884" d="M768.7,613.5c-13.1-19.8-15.7-46.1-6.8-68.1c2.6-6.5,6.3-13.2,5-20.1
							c-1.1-5.6-5.2-10.1-7.2-15.4c-2.1-5.6-1.7-12,1.1-17.3c2.2-4.1,5.7-7.5,7-12c1.7-6-1.1-12.3-1.8-18.5
							c-1.1-9.2,2.7-18.8,9.8-24.7v176.1H768.7z"/>
						<path id="XMLID_62_" fill="#1DB1B1" d="M782.7,613.5c13.1-19.8,15.7-46.1,6.8-68.1c-2.6-6.5-6.3-13.2-5-20.1
							c1.1-5.6,5.2-10.1,7.2-15.4c2.1-5.6,1.7-12-1.1-17.3c-2.2-4.1-5.7-7.5-7-12c-1.7-6,1.1-12.3,1.8-18.5
							c1.1-9.2-2.7-18.8-9.8-24.7v176.1H782.7z"/>
					</g>
					<g id="XMLID_64_">
						<path id="XMLID_66_" fill="#FC7F22" d="M758.4,638.8c-10.4-9-16-23.4-14.5-37.1c0.5-4,1.4-8.4-0.4-12c-1.5-3-4.5-4.8-6.5-7.5
							c-2.1-2.8-2.8-6.5-2.1-9.9c0.6-2.6,2-5.1,2-7.8c0-3.6-2.5-6.7-3.9-10.1c-2-5-1.4-10.9,1.6-15.4l27.6,98.6L758.4,638.8z"/>
						<path id="XMLID_65_" fill="#F8AB07" d="M766.2,636.6c4.2-13.1,1.6-28.3-6.8-39.2c-2.5-3.2-5.6-6.4-5.9-10.5
							c-0.3-3.3,1.3-6.5,1.6-9.8c0.3-3.4-0.9-7-3.3-9.5c-1.9-2-4.4-3.3-5.8-5.6c-1.9-3.1-1.3-7-1.9-10.6c-0.8-5.3-4.5-10.1-9.3-12.3
							l27.6,98.6L766.2,636.6z"/>
					</g>
					<g id="XMLID_67_">
						<path id="XMLID_69_" fill="#BE2A38" d="M794.7,622.5c-6.8-17.2-4.5-37.7,5.8-53.1c3.1-4.5,6.9-9.1,7-14.5
							c0.1-4.4-2.3-8.5-3-12.9c-0.7-4.6,0.7-9.5,3.6-13c2.3-2.8,5.6-4.8,7.3-8c2.3-4.3,1.2-9.5,1.6-14.4c0.7-7.2,5.1-13.9,11.5-17.3
							l-28.5,134.3L794.7,622.5z"/>
						<path id="XMLID_68_" fill="#E73451" d="M805.4,624.7c13.2-13,19.5-32.6,16.2-50.8c-1-5.4-2.6-11.1-0.5-16.1
							c1.7-4.1,5.6-6.8,8-10.6c2.5-3.9,3.2-8.9,2-13.4c-1-3.5-3.1-6.7-3.4-10.3c-0.3-4.9,2.8-9.2,4.4-13.8c2.3-6.8,1-14.7-3.5-20.4
							l-28.5,134.3L805.4,624.7z"/>
					</g>
				</g>
			</g>
		</g>
	</g>
</g>
</svg>
